<?xml version="1.0" encoding="utf-8"?>
<!-- Generator: Adobe Illustrator 27.5.0, SVG Export Plug-In . SVG Version: 6.00 Build 0)  -->
<svg version="1.1" id="Слой_1" xmlns="http://www.w3.org/2000/svg" xmlns:xlink="http://www.w3.org/1999/xlink" x="0px" y="0px"
	 viewBox="0 0 2927.309 2000" style="enable-background:new 0 0 2927.309 2000;" xml:space="preserve">
<g>
	<rect y="-0.001" style="fill:#FAFAFA;" width="2927.309" height="2000.001"/>
	<g>
		<linearGradient id="SVGID_1_" gradientUnits="userSpaceOnUse" x1="844.2447" y1="785.0284" x2="654.7313" y2="90.145">
			<stop  offset="0" style="stop-color:#F9CB8E"/>
			<stop  offset="1" style="stop-color:#F4FFB8"/>
		</linearGradient>
		<circle style="fill:url(#SVGID_1_);" cx="773.59" cy="525.958" r="233.237"/>
		<path style="fill:#FFFFFF;" d="M843.922,605.918h211.98c0,0-36.247-2.359-46.307-13.989c-10.06-11.63-21.631-6.552-29.896,0
			c-8.264,6.551-35.511,4.192-61.143,0C892.926,587.736,861.857,598.48,843.922,605.918z"/>
		<path style="fill:#FFFFFF;" d="M258.551,468.6H773.59c0,0-88.066-5.733-112.51-33.989c-24.443-28.256-52.555-15.918-72.634,0
			c-20.079,15.918-86.279,10.185-148.556,0C377.614,424.426,302.129,450.529,258.551,468.6z"/>
	</g>
	<g>
		<path style="fill:#36572B;" d="M1839.735,900.273c184.52,0,334.115-149.595,334.115-334.114c0-49.824-10.885-97.04-30.459-139.497
			c-52.844-114.874-168.918-194.618-303.656-194.618c-184.52,0-334.115,149.594-334.115,334.115
			c0,63.354,17.629,122.613,48.294,173.099C1612.468,835.759,1718.569,900.273,1839.735,900.273z"/>
		<path style="fill:#45613C;" d="M2157.729,855.752c93.373,0,169.089-75.716,169.089-169.089c0-5.387-0.24-10.714-0.748-15.981
			c-8.051-85.891-80.355-153.107-168.341-153.107c-93.373,0-169.089,75.716-169.089,169.089c0,59.196,30.437,111.299,76.494,141.496
			C2091.739,845.606,2123.552,855.752,2157.729,855.752z"/>
		<path style="fill:#925E2E;" d="M2200.301,717.884c0,0,0,46.779-3.53,107.318c-0.778,12.72-1.662,26.063-2.752,39.667
			c-0.104,1.661-0.26,3.323-0.416,4.984c-1.766,21.287-3.998,43.249-6.854,64.692c-0.415,3.218-0.883,6.489-1.298,9.708
			c-8.566,60.071-21.962,114.691-43.093,137.795c-8.516,9.346-15.68,30.062-21.807,58.618
			c-7.373,34.525-13.084,80.475-17.601,131.668c-3.998,46-7.009,96.154-9.242,145.945c-0.155,3.323-0.312,6.594-0.466,9.865
			c-2.908,67.496-4.414,133.796-5.192,187.534h-146.472l-2.681-438.142c0,0-135.628-16.571-129.449-227.624
			c0.52-17.083,1.091-33.748,1.714-50.051c0.052-0.26,0.052-0.571,0.052-0.831c0.882-21.806,1.87-42.834,2.96-62.979
			c5.866-112.25,14.174-197.346,18.016-233.379c0.414-3.998,0.778-7.373,1.09-10.124c0.623-5.815,0.986-8.827,0.986-8.827
			l14.383,14.278l1.245,1.246c0,0-0.363,2.388-0.985,6.854c-3.687,26.375-16.2,124.815-14.746,227.823
			c0.312,22.118,1.298,44.443,3.115,66.302c0.156,1.765,0.311,3.53,0.469,5.296c10.902,120.557,49.063,225.383,152.851,201.344
			c20.612-4.776,38.939-12.098,55.241-21.443c54.725-31.307,86.344-85.46,104.204-143.559c0.778-2.439,1.506-4.879,2.18-7.319
			c6.179-21.443,10.488-43.302,13.5-64.641c1.09-7.477,1.972-14.901,2.699-22.17c0.831-8.047,1.453-15.938,1.973-23.675
			c2.44-38.214,1.298-71.961-0.312-94.806c-1.298-19.158-2.908-30.685-2.908-30.685L2198.743,717L2200.301,717.884z"/>
		
			<linearGradient id="SVGID_00000067946077241875316340000001958594392745018807_" gradientUnits="userSpaceOnUse" x1="1968.0208" y1="850.7177" x2="1734.1866" y2="332.1158">
			<stop  offset="0" style="stop-color:#186DA1"/>
			<stop  offset="1" style="stop-color:#639C38"/>
		</linearGradient>
		<path style="fill:url(#SVGID_00000067946077241875316340000001958594392745018807_);" d="M1756.972,619.954
			c191.804-35.837,318.141-118.766,386.42-193.293c-52.844-114.874-168.918-194.618-303.656-194.618
			c-184.52,0-334.115,149.594-334.115,334.115c0,63.354,17.629,122.613,48.294,173.099
			C1563.1,693.819,1612.84,646.852,1756.972,619.954z"/>
		
			<linearGradient id="SVGID_00000163070855360379006080000001643795311473610430_" gradientUnits="userSpaceOnUse" x1="2303.9788" y1="1073.2998" x2="2102.5569" y2="540.8061">
			<stop  offset="0" style="stop-color:#186DA1"/>
			<stop  offset="1" style="stop-color:#639C38"/>
		</linearGradient>
		<path style="fill:url(#SVGID_00000163070855360379006080000001643795311473610430_);" d="M2207.108,733.051
			c56.054-16.162,94.031-38.337,118.961-62.369c-8.051-85.891-80.355-153.107-168.341-153.107
			c-93.373,0-169.089,75.716-169.089,169.089c0,59.196,30.437,111.299,76.494,141.496
			C2082.282,795.777,2121.067,757.83,2207.108,733.051z"/>
		
			<linearGradient id="SVGID_00000055706123416744844880000000747626467623889318_" gradientUnits="userSpaceOnUse" x1="2394.478" y1="1039.0667" x2="2193.0564" y2="506.5736">
			<stop  offset="0" style="stop-color:#186DA1"/>
			<stop  offset="1" style="stop-color:#639C38"/>
		</linearGradient>
		<path style="fill:url(#SVGID_00000055706123416744844880000000747626467623889318_);" d="M2173.075,538.803l14.58,4.489
			c0,0,22.944-62.348,24.44-70.828C2213.593,463.985,2173.075,538.803,2173.075,538.803z"/>
		
			<linearGradient id="SVGID_00000131367221274427602960000000175040981819009173_" gradientUnits="userSpaceOnUse" x1="2450.0532" y1="1018.0785" x2="2248.6189" y2="485.5517">
			<stop  offset="0" style="stop-color:#186DA1"/>
			<stop  offset="1" style="stop-color:#639C38"/>
		</linearGradient>
		<path style="fill:url(#SVGID_00000131367221274427602960000000175040981819009173_);" d="M2310.855,543.292l-72.323,21.946
			c0,0,0.498,6.485,9.975,6.485C2257.984,571.723,2310.855,543.292,2310.855,543.292z"/>
		
			<linearGradient id="SVGID_00000170254010169825365970000003208852647878844045_" gradientUnits="userSpaceOnUse" x1="2404.1467" y1="1035.407" x2="2202.7271" y2="502.919">
			<stop  offset="0" style="stop-color:#186DA1"/>
			<stop  offset="1" style="stop-color:#639C38"/>
		</linearGradient>
		<path style="fill:url(#SVGID_00000170254010169825365970000003208852647878844045_);" d="M2285.915,694.923h-18.454
			c0,0,3.491,27.433,18.454,44.89C2300.879,757.271,2285.915,694.923,2285.915,694.923z"/>
		<path style="fill:#45613C;" d="M2568.471,946.387c122.692,0,222.181-99.49,222.181-222.181c0-7.079-0.314-14.079-0.982-20.999
			c-10.578-112.86-105.586-201.182-221.198-201.182c-122.692,0-222.181,99.49-222.181,222.181
			c0,77.783,39.992,146.246,100.512,185.924C2481.762,933.056,2523.563,946.387,2568.471,946.387z"/>
		
			<linearGradient id="SVGID_00000042707770314993298610000015806527818344724898_" gradientUnits="userSpaceOnUse" x1="1779.3666" y1="935.7834" x2="1545.5309" y2="417.1783">
			<stop  offset="0" style="stop-color:#186DA1"/>
			<stop  offset="1" style="stop-color:#639C38"/>
		</linearGradient>
		<path style="fill:url(#SVGID_00000042707770314993298610000015806527818344724898_);" d="M1468.976,343.997
			c-4.282,12.093,98.909,80.347,98.909,80.347l19.386-13.196C1587.271,411.147,1473.259,331.905,1468.976,343.997z"/>
		
			<linearGradient id="SVGID_00000049906407622224977520000016811611576799492255_" gradientUnits="userSpaceOnUse" x1="1840.2711" y1="908.315" x2="1606.4382" y2="389.7158">
			<stop  offset="0" style="stop-color:#186DA1"/>
			<stop  offset="1" style="stop-color:#639C38"/>
		</linearGradient>
		<path style="fill:url(#SVGID_00000049906407622224977520000016811611576799492255_);" d="M1611.838,360.218
			c-14.044-27.984-63.492-57.732-63.492-57.732l44.242,64.996C1592.588,367.482,1625.881,388.203,1611.838,360.218z"/>
		
			<linearGradient id="SVGID_00000067233819922666838480000001291649682887951038_" gradientUnits="userSpaceOnUse" x1="1896.8948" y1="882.7897" x2="1663.0594" y2="364.1854">
			<stop  offset="0" style="stop-color:#186DA1"/>
			<stop  offset="1" style="stop-color:#639C38"/>
		</linearGradient>
		<path style="fill:url(#SVGID_00000067233819922666838480000001291649682887951038_);" d="M1657.386,331.567
			c-0.575-46.127-46.924-117.403-46.924-117.403l16.739,114.623C1627.201,328.787,1657.961,377.693,1657.386,331.567z"/>
		
			<linearGradient id="SVGID_00000150793118845871333140000006779305661678648754_" gradientUnits="userSpaceOnUse" x1="1795.0612" y1="928.705" x2="1561.2257" y2="410.1003">
			<stop  offset="0" style="stop-color:#186DA1"/>
			<stop  offset="1" style="stop-color:#639C38"/>
		</linearGradient>
		<path style="fill:url(#SVGID_00000150793118845871333140000006779305661678648754_);" d="M1666.622,714.265
			c14.483-11.851,15.172-115.994,15.172-115.994l-22.76,8.276C1659.034,606.546,1652.139,726.116,1666.622,714.265z"/>
		<path style="fill:#925E2E;" d="M2169.604,968.81c0,0,370.216,131.505,412.938-173.33l-24.732-6.764
			c0,0,8.125,281.532-388.205,143.299V968.81z"/>
		
			<linearGradient id="SVGID_00000113327448357740680680000004656749976508779650_" gradientUnits="userSpaceOnUse" x1="2737.4844" y1="1018.9625" x2="2448.0862" y2="514.2514">
			<stop  offset="0" style="stop-color:#186DA1"/>
			<stop  offset="1" style="stop-color:#639C38"/>
		</linearGradient>
		<path style="fill:url(#SVGID_00000113327448357740680680000004656749976508779650_);" d="M2633.355,785.158
			c73.654-21.236,123.556-50.375,156.313-81.952c-10.578-112.86-105.586-201.182-221.198-201.182
			c-122.692,0-222.181,99.49-222.181,222.181c0,77.783,39.992,146.246,100.512,185.924
			C2469.335,867.581,2520.299,817.719,2633.355,785.158z"/>
		
			<linearGradient id="SVGID_00000041272495300498213520000017299081096032763797_" gradientUnits="userSpaceOnUse" x1="2758.6682" y1="1006.8167" x2="2469.2693" y2="502.1044">
			<stop  offset="0" style="stop-color:#186DA1"/>
			<stop  offset="1" style="stop-color:#639C38"/>
		</linearGradient>
		<path style="fill:url(#SVGID_00000041272495300498213520000017299081096032763797_);" d="M2490.929,558.533l14.757-13.567
			c0,0-55.532-67.355-64.161-74.673C2432.895,462.975,2490.929,558.533,2490.929,558.533z"/>
		
			<linearGradient id="SVGID_00000026846658980780949840000010992169141968750980_" gradientUnits="userSpaceOnUse" x1="2785.5569" y1="991.4006" x2="2496.1575" y2="486.6875">
			<stop  offset="0" style="stop-color:#186DA1"/>
			<stop  offset="1" style="stop-color:#639C38"/>
		</linearGradient>
		<path style="fill:url(#SVGID_00000026846658980780949840000010992169141968750980_);" d="M2511.513,458.815l-5.827,99.141
			c0,0,8.221,2.334,12.529-9.349C2522.524,536.923,2511.513,458.815,2511.513,458.815z"/>
		
			<linearGradient id="SVGID_00000071528250497933230690000013493350449430330812_" gradientUnits="userSpaceOnUse" x1="2812.7349" y1="975.8148" x2="2523.3354" y2="471.1018">
			<stop  offset="0" style="stop-color:#186DA1"/>
			<stop  offset="1" style="stop-color:#639C38"/>
		</linearGradient>
		<path style="fill:url(#SVGID_00000071528250497933230690000013493350449430330812_);" d="M2728.957,793.289l-71.347-69.083
			c0,0-7.131,4.709-1.085,15.595C2662.571,750.688,2728.957,793.289,2728.957,793.289z"/>
	</g>
	<g>
		<path style="fill:#36572B;" d="M374.365,889.28c125.9,0,227.973-102.07,227.973-227.972c0-33.996-7.428-66.212-20.782-95.182
			c-36.057-78.381-115.257-132.791-207.19-132.791c-125.901,0-227.973,102.07-227.973,227.972
			c0,43.228,12.028,83.661,32.951,118.108C219.297,845.261,291.691,889.28,374.365,889.28z"/>
		<path style="fill:#45613C;" d="M605.894,868.838c88.095,0,159.529-71.435,159.529-159.529c0-5.083-0.226-10.108-0.706-15.078
			c-7.595-81.035-75.812-144.452-158.823-144.452c-88.095,0-159.529,71.436-159.529,159.53c0,55.85,28.715,105.007,72.169,133.497
			C543.636,859.266,573.65,868.838,605.894,868.838z"/>
		<path style="fill:#925E2E;" d="M620.385,764.834c0,0,0,31.918-2.408,73.225c-0.531,8.679-1.134,17.783-1.878,27.065
			c-0.071,1.133-0.178,2.267-0.283,3.4c-1.205,14.525-2.728,29.51-4.677,44.141c-0.283,2.196-0.603,4.428-0.886,6.624
			c-5.845,40.988-14.985,78.256-29.402,94.019c-5.811,6.377-10.699,20.512-14.88,39.996c-5.03,23.558-8.927,54.91-12.009,89.84
			c-2.728,31.387-4.782,65.608-6.306,99.581c-0.106,2.268-0.213,4.499-0.318,6.732c-1.984,46.053-3.012,91.291-3.543,127.957
			h-79.991v-310.258c0,0-114.318,0-110.103-144.005c0.354-11.655,0.744-23.027,1.17-34.15c0.035-0.177,0.035-0.39,0.035-0.567
			c0.602-14.879,1.275-29.227,2.02-42.972c4.003-76.59,9.671-134.652,12.293-159.238c0.282-2.728,0.53-5.031,0.743-6.909
			c0.425-3.967,0.673-6.022,0.673-6.022l9.814,9.743l0.85,0.85c0,0-0.248,1.629-0.673,4.676
			c-2.515,17.997-11.053,85.163-10.061,155.448c0.212,15.091,0.886,30.324,2.125,45.238c0.107,1.205,0.213,2.409,0.319,3.613
			c7.44,82.259,33.477,153.783,104.293,137.381c14.064-3.259,26.569-8.254,37.692-14.631c37.339-21.361,58.914-58.311,71.1-97.952
			c0.531-1.665,1.028-3.33,1.488-4.995c4.215-14.631,7.156-29.545,9.211-44.106c0.744-5.101,1.346-10.167,1.842-15.127
			c0.566-5.49,0.991-10.875,1.346-16.153c1.665-26.074,0.886-49.101-0.212-64.688c-0.886-13.072-1.984-20.938-1.984-20.938
			l21.539,12.576L620.385,764.834z"/>
		
			<linearGradient id="SVGID_00000100340447256154842140000012497840670769594044_" gradientUnits="userSpaceOnUse" x1="480.0351" y1="886.7592" x2="271.6678" y2="442.2414">
			<stop  offset="0" style="stop-color:#186DA1"/>
			<stop  offset="1" style="stop-color:#639C38"/>
		</linearGradient>
		<path style="fill:url(#SVGID_00000100340447256154842140000012497840670769594044_);" d="M317.895,698.015
			c130.871-24.452,217.072-81.036,263.661-131.888c-36.057-78.381-115.257-132.791-207.19-132.791
			c-125.901,0-227.973,102.07-227.973,227.972c0,43.228,12.028,83.661,32.951,118.108
			C185.611,748.414,219.551,716.367,317.895,698.015z"/>
		
			<linearGradient id="SVGID_00000174601395050592730480000009267464565733259400_" gradientUnits="userSpaceOnUse" x1="704.1624" y1="936.874" x2="539.2045" y2="554.8671">
			<stop  offset="0" style="stop-color:#186DA1"/>
			<stop  offset="1" style="stop-color:#639C38"/>
		</linearGradient>
		<path style="fill:url(#SVGID_00000174601395050592730480000009267464565733259400_);" d="M652.482,753.073
			c52.885-15.248,88.716-36.17,112.235-58.843c-7.595-81.035-75.812-144.452-158.823-144.452
			c-88.095,0-159.529,71.436-159.529,159.53c0,55.85,28.715,105.007,72.169,133.497
			C534.714,812.254,571.307,776.452,652.482,753.073z"/>
		
			<linearGradient id="SVGID_00000034089474982326637820000009710733125063938731_" gradientUnits="userSpaceOnUse" x1="794.1455" y1="898.0186" x2="629.1877" y2="516.0116">
			<stop  offset="0" style="stop-color:#186DA1"/>
			<stop  offset="1" style="stop-color:#639C38"/>
		</linearGradient>
		<path style="fill:url(#SVGID_00000034089474982326637820000009710733125063938731_);" d="M620.373,569.807l13.757,4.236
			c0,0,21.646-58.824,23.059-66.824S620.373,569.807,620.373,569.807z"/>
		
			<linearGradient id="SVGID_00000147920557037405848150000010806604064690054304_" gradientUnits="userSpaceOnUse" x1="842.5359" y1="877.1208" x2="677.5787" y2="495.1151">
			<stop  offset="0" style="stop-color:#186DA1"/>
			<stop  offset="1" style="stop-color:#639C38"/>
		</linearGradient>
		<path style="fill:url(#SVGID_00000147920557037405848150000010806604064690054304_);" d="M750.365,574.042l-68.235,20.706
			c0,0,0.471,6.117,9.411,6.117C700.483,600.865,750.365,574.042,750.365,574.042z"/>
		
			<linearGradient id="SVGID_00000042011937957684987530000006134943071072913342_" gradientUnits="userSpaceOnUse" x1="794.3286" y1="897.9376" x2="629.3723" y2="515.9341">
			<stop  offset="0" style="stop-color:#186DA1"/>
			<stop  offset="1" style="stop-color:#639C38"/>
		</linearGradient>
		<path style="fill:url(#SVGID_00000042011937957684987530000006134943071072913342_);" d="M726.835,717.102h-17.411
			c0,0,3.294,25.882,17.411,42.353C740.952,775.925,726.835,717.102,726.835,717.102z"/>
		
			<linearGradient id="SVGID_00000035528710743464395480000014518785099032393909_" gradientUnits="userSpaceOnUse" x1="525.8855" y1="865.2656" x2="317.519" y2="420.7495">
			<stop  offset="0" style="stop-color:#186DA1"/>
			<stop  offset="1" style="stop-color:#639C38"/>
		</linearGradient>
		<path style="fill:url(#SVGID_00000035528710743464395480000014518785099032393909_);" d="M308.012,390.513
			c-7.059,5.177,24.94,83.294,24.94,83.294h16.001C348.953,473.807,315.071,385.336,308.012,390.513z"/>
		
			<linearGradient id="SVGID_00000145042868611312143160000018252495882424293542_" gradientUnits="userSpaceOnUse" x1="566.4587" y1="846.249" x2="358.0913" y2="401.7311">
			<stop  offset="0" style="stop-color:#186DA1"/>
			<stop  offset="1" style="stop-color:#639C38"/>
		</linearGradient>
		<path style="fill:url(#SVGID_00000145042868611312143160000018252495882424293542_);" d="M382.364,454.513
			c2.823-21.176-13.646-56.941-13.646-56.941v53.648C368.718,451.219,379.54,475.69,382.364,454.513z"/>
		
			<linearGradient id="SVGID_00000165221349240997684570000012192789908891904425_" gradientUnits="userSpaceOnUse" x1="362.7175" y1="941.7531" x2="154.3496" y2="497.2342">
			<stop  offset="0" style="stop-color:#186DA1"/>
			<stop  offset="1" style="stop-color:#639C38"/>
		</linearGradient>
		<path style="fill:url(#SVGID_00000165221349240997684570000012192789908891904425_);" d="M256.247,762.364
			c9.882-8.087,10.352-79.145,10.352-79.145l-15.53,5.647C251.069,688.866,246.364,770.45,256.247,762.364z"/>
	</g>
	<g>
		<g>
			<g>
				<g>
					
						<linearGradient id="SVGID_00000178886507724126217350000001115827149074388629_" gradientUnits="userSpaceOnUse" x1="-1753.2056" y1="1766.7007" x2="-1159.3865" y2="1311.7861" gradientTransform="matrix(0.9577 -0.2879 0.2879 0.9577 1079.7421 1667.4558)">
						<stop  offset="0" style="stop-color:#186DA1"/>
						<stop  offset="1" style="stop-color:#639C38"/>
					</linearGradient>
					<path style="fill:url(#SVGID_00000178886507724126217350000001115827149074388629_);" d="M1617.697,1143.006
						c0,0,244.762-186.821,383.194-51.279c110.764,108.451,32.529,180.678,32.529,180.678s-27.945,51.077-207.857-86.382
						C1740.765,1121.233,1617.697,1143.006,1617.697,1143.006z"/>
				</g>
			</g>
		</g>
		<g>
			<g>
				<g>
					
						<linearGradient id="SVGID_00000023258674326890573180000016907000259279002279_" gradientUnits="userSpaceOnUse" x1="1577.9658" y1="-279.4281" x2="776.4007" y2="-574.3768" gradientTransform="matrix(0.9577 -0.2879 0.2879 0.9577 1079.7421 1667.4558)">
						<stop  offset="0" style="stop-color:#186DA1"/>
						<stop  offset="1" style="stop-color:#639C38"/>
					</linearGradient>
					<path style="fill:url(#SVGID_00000023258674326890573180000016907000259279002279_);" d="M1460.13,707.847
						c0,0,220.524-133.234,452.82,130.806c232.295,264.04,379.616,252.979,379.616,252.979S1776.306,1322.358,1460.13,707.847z"/>
				</g>
			</g>
		</g>
		<g>
			<g>
				<g>
					
						<linearGradient id="SVGID_00000067919992064788761780000015665604390361487551_" gradientUnits="userSpaceOnUse" x1="2313.7808" y1="1206.3445" x2="1827.6086" y2="525.7042" gradientTransform="matrix(0.9577 -0.2879 0.2879 0.9577 1079.7421 1667.4558)">
						<stop  offset="0" style="stop-color:#186DA1"/>
						<stop  offset="1" style="stop-color:#639C38"/>
					</linearGradient>
					<path style="fill:url(#SVGID_00000067919992064788761780000015665604390361487551_);" d="M2197.565,1133.717
						c4.027,105.912-274.645-31.234-340.483-199.801c-65.84-168.566-52.274-307.57-125.776-407.957
						C1731.306,525.958,2177.739,612.175,2197.565,1133.717z"/>
				</g>
			</g>
		</g>
	</g>
	<g>
		<g>
			<g>
				<g>
					
						<linearGradient id="SVGID_00000084516285746558809770000009995043671395451798_" gradientUnits="userSpaceOnUse" x1="69.6398" y1="-3849.6638" x2="377.708" y2="-4085.6697" gradientTransform="matrix(0.0766 0.9971 -0.9971 0.0766 -4157.9927 -213.0246)">
						<stop  offset="0" style="stop-color:#186DA1"/>
						<stop  offset="1" style="stop-color:#639C38"/>
					</linearGradient>
					<path style="fill:url(#SVGID_00000084516285746558809770000009995043671395451798_);" d="M869.488,734.452
						c0,0,67.551,144.753-16.485,199.885c-67.24,44.114-79.13-20.105-79.13-20.105s-38.831-3.259,50.775-79.201
						C866.883,799.235,869.488,734.452,869.488,734.452z"/>
				</g>
			</g>
		</g>
		<g>
			<g>
				<g>
					
						<linearGradient id="SVGID_00000076567689758834149550000017841783036821195935_" gradientUnits="userSpaceOnUse" x1="1744.3708" y1="-4918.4966" x2="1373.4574" y2="-5054.98" gradientTransform="matrix(0.0766 0.9971 -0.9971 0.0766 -4157.9927 -213.0246)">
						<stop  offset="0" style="stop-color:#186DA1"/>
						<stop  offset="1" style="stop-color:#639C38"/>
					</linearGradient>
					<path style="fill:url(#SVGID_00000076567689758834149550000017841783036821195935_);" d="M1107.491,702.831
						c0,0,43.08,126.529-116.483,214.989s-181.085,111.537-181.085,111.537S761.013,794.954,1107.491,702.831z"/>
				</g>
			</g>
		</g>
		<g>
			<g>
				<g>
					
						<linearGradient id="SVGID_00000098213052608722543010000004115081561780099219_" gradientUnits="userSpaceOnUse" x1="2184.4949" y1="-4133.9204" x2="1932.2777" y2="-4487.0244" gradientTransform="matrix(0.0766 0.9971 -0.9971 0.0766 -4157.9927 -213.0246)">
						<stop  offset="0" style="stop-color:#186DA1"/>
						<stop  offset="1" style="stop-color:#639C38"/>
					</linearGradient>
					<path style="fill:url(#SVGID_00000098213052608722543010000004115081561780099219_);" d="M809.923,1029.358
						c-54.122-9.699,46.271-135.727,138.998-150.41c92.728-14.683,161.67,7.599,220.693-18.525
						C1169.614,860.422,1076.437,1077.117,809.923,1029.358z"/>
				</g>
			</g>
		</g>
	</g>
	<g>
		<path style="fill:#E8734D;" d="M418.88,1142.891c0,0-26.475-12.226-38.385,12.408c-11.911,24.634,23.183,60.987,11.726,75.832
			c-11.457,14.845-33.168,6.018-42.892,61.559c0,0,8.645-34.414,35.02-34.47c26.373-0.055,40.574-15.502,28.888-48.661
			c-11.686-33.158,7.403-27.498,7.178-37.865C420.188,1161.326,418.88,1142.891,418.88,1142.891z"/>
		<g>
			
				<linearGradient id="SVGID_00000018213437447975906060000013620789374207509428_" gradientUnits="userSpaceOnUse" x1="460.0511" y1="1578.5712" x2="506.268" y2="1734.752">
				<stop  offset="0" style="stop-color:#EB9B73"/>
				<stop  offset="1" style="stop-color:#EEA886"/>
			</linearGradient>
			<path style="fill:url(#SVGID_00000018213437447975906060000013620789374207509428_);" d="M551.962,1799.894
				c0,0-10.529,8.367-20.564,2.624c0,0-0.093-0.185-0.247-0.556c-3.613-7.72-43.413-93.155-50.268-109.274
				c-5.743-13.492-3.489-48.042-9.695-64.562c-1.08-2.872-2.439-5.218-4.106-6.793c-1.173-1.111-2.934-3.088-5.218-5.805
				c-8.893-10.715-25.258-32.915-40.325-57.246c-15.562-25.071-29.765-52.458-33.131-71.942c-0.524-2.933-0.803-5.683-0.772-8.183
				c0-0.493,0-0.926,0.031-1.389c0.926-18.989,22.817-11.549,45.142,1.174c2.346,1.327,4.692,2.716,7.009,4.137
				c1.142,0.709,2.284,1.42,3.427,2.132c19.916,12.534,37.546,26.708,37.546,26.708s24.393,68.453,30.753,90.004
				c0.371,1.267,0.68,2.347,0.927,3.273c4.323,16.643,3.705,34.088,6.206,41.065c2.501,6.823,32.328,150.061,33.254,154.538
				C551.962,1799.861,551.962,1799.894,551.962,1799.894z"/>
		</g>
		
			<linearGradient id="SVGID_00000183238983477729753920000018372278812001527992_" gradientUnits="userSpaceOnUse" x1="488.071" y1="1575.2236" x2="483.8878" y2="1676.2218">
			<stop  offset="0" style="stop-color:#CC8764"/>
			<stop  offset="1" style="stop-color:#EEA886"/>
		</linearGradient>
		<path style="fill:url(#SVGID_00000183238983477729753920000018372278812001527992_);" d="M511.544,1600.924
			c0,0-28.189,21.337-40.355,27.203c-1.08-2.872-2.439-5.218-4.106-6.793c-1.173-1.111-2.934-3.088-5.218-5.805
			c0,0,0.03,0,0.093-0.032C463.933,1614.541,498.453,1598.361,511.544,1600.924z"/>
		<g>
			<g>
				<g>
					<path style="fill:#EEA886;" d="M351.837,1484.736c-0.154,1.049-1.822,8.491-1.914,10.621c-0.093,2.16,0.246,6.545-1.606,6.361
						c-1.883-0.156-3.273-4.016-3.273-4.016s-0.216,1.946-1.884,2.286c-3.272,0.679-4.601-0.958-4.601-0.958
						s-1.543,1.821-2.964,1.791c-3.181-0.123-4.446-1.761-4.446-1.761s-1.574,0.866-3.674,0.309
						c-2.686-0.71-3.335-3.396-3.335-3.396s-3.582-0.124-4.23-1.976c-0.679-1.885-0.154-3.582-0.277-5.156
						c-0.124-1.575,2.841-14.851,9.201-23.374c1.39-1.883,2.315-3.89,2.871-5.866c1.914-6.577-0.062-12.813-0.216-13.339
						l18.278,7.441c0,0,1.575,4.569,1.235,7.905c-0.123,1.11,0.062,2.563,0.309,4.013c0.031,0,0.031,0,0.031,0
						c0.37,1.977,0.927,4.015,1.235,5.373C353.071,1473.342,352.238,1482.203,351.837,1484.736z"/>
				</g>
			</g>
		</g>
		<g>
			<path style="fill:#0E1E2B;" d="M351.202,1491.807h-0.062l-0.648-0.155l-3.736-0.833h-0.03l-26.4-5.898l-0.092-0.029
				c-0.031,0-0.063,0-0.093-0.031c-3.119-0.647-6.206,1.358-6.886,4.477l-3.798,16.858l-0.587,2.655
				c-0.679,3.15,1.297,6.299,4.446,6.979l30.97,6.916c3.149,0.711,6.299-1.265,6.978-4.414l0.617-2.688l3.767-16.858
				C356.328,1495.635,354.352,1492.518,351.202,1491.807z M347.435,1517.464c-0.217,1.051-1.235,1.699-2.285,1.452L314.182,1512
				c-1.05-0.217-1.698-1.236-1.482-2.285l0.587-2.686l3.798-16.858c0.216-1.02,1.234-1.668,2.284-1.451l0.185,0.031l0.093,0.029
				l26.492,5.93h0.03l3.768,0.834l0.401,0.092c1.05,0.216,1.698,1.267,1.482,2.285l-3.799,16.859L347.435,1517.464z"/>
		</g>
		<g>
			
				<rect x="261.821" y="1509.886" transform="matrix(0.976 0.2178 -0.2178 0.976 345.8652 -32.7231)" style="fill:#54281A;" width="119.1" height="85.331"/>
		</g>
		<g>
			
				<rect x="265.728" y="1510.317" transform="matrix(0.976 0.2178 -0.2178 0.976 342.1465 -33.9942)" style="fill:#873F2B;" width="119.1" height="49.462"/>
		</g>
		<g>
			<path style="fill:#EFAA88;" d="M579.553,1293.068c0,0,2.89-5.334,2.265-6.328c-0.626-0.994-2.662-2.044-7.142,3.164
				c-4.479,5.208-5.1,7.207-7.377,9.228C565.022,1301.151,579.553,1293.068,579.553,1293.068z"/>
			
				<rect x="581.911" y="1251.529" transform="matrix(0.9415 0.3369 -0.3369 0.9415 467.7881 -122.7652)" style="fill:#6B6B6B;" width="11.411" height="69.843"/>
			<path style="fill:#EEA886;" d="M589.909,1303.15c0,0,3.149,3.365,1.143,6.7c-1.977,3.304-0.494,4.971-3.335,6.979
				c-2.81,2.007-0.154,5.989-3.304,6.977c-2.81,0.896-10.281-0.679-13.925-0.277c-0.247,0.03-0.464,0.062-0.648,0.123
				c-0.217,0.031-0.433,0.093-0.618,0.154c-0.309,0.124-0.741,0.31-1.266,0.463c-1.575,0.587-3.952,1.297-6.36,1.945
				c-3.582,1.019-7.287,1.853-8.677,1.761c-2.687-0.155-7.503-15.192-7.503-15.192s6.484-2.47,12.999-7.132
				c3.582-2.563,7.873-6.823,11.733-9.942c0.03-0.031,0.03-0.062,0.03-0.062c2.471-1.976,4.755-3.551,6.546-3.922
				c0.464-0.124,0.927-0.153,1.328-0.062c0.463,0.093,0.957,0.217,1.513,0.401c0.124,0.031,0.278,0.093,0.433,0.155
				c3.211,1.049,7.442,3.272,9.85,4.939c1.08,0.771,1.791,1.421,1.883,1.822C592.07,1300.495,589.909,1303.15,589.909,1303.15z"/>
			<path style="fill:#D19376;" d="M589.896,1303.159c0,0,3.165,3.364,1.166,6.681c-1.999,3.315-0.5,4.981-3.332,6.981
				c-2.832,1.999-0.167,5.998-3.332,6.997c-2.792,0.882-10.257-0.699-13.919-0.283c1.85-0.308,7.106-1.258,7.533-2.159
				c4.523-9.57-1-28.99-1-28.99l-0.302-0.675c0.488-0.107,0.943-0.128,1.357-0.048c4.332,0.833,13.328,5.831,13.662,7.331
				C592.063,1300.493,589.896,1303.159,589.896,1303.159z"/>
			<path style="fill:#C4C4C4;" d="M598.656,1263.131c-0.599,1.934-1.665,3.32-2.381,3.1c-0.716-0.222-0.812-1.969-0.213-3.902
				s1.665-3.322,2.381-3.1C599.159,1259.449,599.255,1261.197,598.656,1263.131z"/>
		</g>
		
			<linearGradient id="SVGID_00000181798860438808420940000017891026112295692725_" gradientUnits="userSpaceOnUse" x1="553.6888" y1="1541.8948" x2="567.2347" y2="1794.4857">
			<stop  offset="0" style="stop-color:#EB9B73"/>
			<stop  offset="1" style="stop-color:#EEA886"/>
		</linearGradient>
		<path style="fill:url(#SVGID_00000181798860438808420940000017891026112295692725_);" d="M549.84,1796.395
			c0,0,6.625,11.587,11.038,14.451c4.413,2.863,25.023,23.591,31.267,23.967c6.244,0.375,18.502-0.385,19.328,2.141
			c0.826,2.525,2.732,15.051-14.545,17.68c-17.276,2.63-21.877,2.888-26.638-0.807c-4.761-3.695-22.863-13.757-27.398-13.066
			l3.286,21.596l-4.535,0.69c0,0-8.394-26.122-12.638-30.778c-4.244-4.658-3.465-24.221,4.207-33.343
			C540.883,1789.803,549.84,1796.395,549.84,1796.395z"/>
		<path style="fill:#1F3F59;" d="M592.144,1834.813c0,0-18.892,5.084-27.868-0.179c-8.977-5.263-21.232-19.633-37.582-17.866
			c0,0-4.89,8.23,6.869,24.102c0,0,7.803,18.904,8.079,22.177l4.535-0.69l-3.286-21.596c0,0,17.251,5.108,30.144,16.184
			c0,0,33.902,1.028,38.837-10.107c0,0,2.791-5.617,0.614-10.48C610.31,1831.495,592.144,1834.813,592.144,1834.813z"/>
		
			<linearGradient id="SVGID_00000071553425329394704260000009860553383759426741_" gradientUnits="userSpaceOnUse" x1="278.3515" y1="1556.662" x2="291.8974" y2="1809.2521">
			<stop  offset="0" style="stop-color:#EB9B73"/>
			<stop  offset="1" style="stop-color:#EEA886"/>
		</linearGradient>
		<path style="fill:url(#SVGID_00000071553425329394704260000009860553383759426741_);" d="M292.096,1777.051
			c0,0,1.044,13.307,3.813,17.779c2.769,4.474,12.558,32.016,18.044,35.021c5.486,3.005,16.896,7.55,16.565,10.187
			c-0.331,2.637-3.954,14.777-20.7,9.78c-16.746-4.997-21.017-6.728-23.744-12.101c-2.727-5.373-14.804-22.198-19.199-23.511
			l-6.247,20.933l-4.396-1.312c0,0,3.56-27.206,1.709-33.229c-1.85-6.023,7.206-23.382,18.037-28.356
			C286.809,1767.267,292.096,1777.051,292.096,1777.051z"/>
		<path style="fill:#1F3F59;" d="M313.952,1829.851c0,0-19.254-3.466-25.125-12.058c-5.871-8.591-10.819-26.816-26.36-32.198
			c0,0-7.935,5.356-4.075,24.727c0,0-1.014,20.426-2.16,23.504l4.396,1.312l6.247-20.933c0,0,13.419,11.983,20.352,27.502
			c0,0,30.219,15.401,39.435,7.438c0,0,4.922-3.889,5.028-9.214C331.796,1834.605,313.952,1829.851,313.952,1829.851z"/>
		<g>
			
				<linearGradient id="SVGID_00000170260329009583087190000016191248339202464910_" gradientUnits="userSpaceOnUse" x1="269.5479" y1="1779.8746" x2="297.8711" y2="1779.8746">
				<stop  offset="0" style="stop-color:#EB9B73"/>
				<stop  offset="1" style="stop-color:#EEA886"/>
			</linearGradient>
			<path style="fill:url(#SVGID_00000170260329009583087190000016191248339202464910_);" d="M297.871,1775.045
				c0,0-10.09,17.991-10.771,21.204c-0.68,3.208-14.489,1.692-17.553-10.827c0,0,11.749-22.727,11.4-23.348
				C280.6,1761.453,297.871,1775.045,297.871,1775.045z"/>
		</g>
		<g>
			
				<linearGradient id="SVGID_00000047740106335837291920000008172585337593817767_" gradientUnits="userSpaceOnUse" x1="387.2179" y1="1552.7589" x2="318.6918" y2="1724.0741">
				<stop  offset="0" style="stop-color:#EB9B73"/>
				<stop  offset="1" style="stop-color:#EEA886"/>
			</linearGradient>
			<path style="fill:url(#SVGID_00000047740106335837291920000008172585337593817767_);" d="M438.64,1516.362
				c0,0-32.009,79.657-40.055,94.849c-8.047,15.191-19.944,22.93-22.802,29.766c-2.856,6.837-78.471,135.069-78.471,135.069
				s-13.272-1.745-16.773-12.745c0,0,31.385-94.753,37.501-112.054c5.746-16.252,37.015-47.248,35.88-62.776
				c-1.136-15.527,19.786-120.166,47.617-147.766C429.368,1413.106,438.64,1516.362,438.64,1516.362z"/>
		</g>
		<path style="fill:#A36037;" d="M517.397,1598.794c0,0-147.437,82.559-202.83,45.384c0,0,46.779-100.746,47.86-133.073
			c0.339-9.942,2.778-19.206,5.928-27.233c2.655-6.854,5.867-12.782,8.707-17.384c4.138-6.732,7.534-10.683,7.534-10.683
			l85.961,18.803c0,0,0.463,1.173,1.327,3.336C478.802,1495.202,495.743,1518.969,517.397,1598.794z"/>
		<g>
			<g>
				<path style="fill:#D19376;" d="M345.774,1496.557c0,0,2.685-11.895,0.109-15.196c-2.575-3.301-3.785,0.935-3.785,0.935
					s1.268-4.167-1.986-5.566c-3.253-1.399-4.403,3.639-4.403,3.639s0.103-3.428-3.57-3.615c-3.673-0.188-3.665,4.22-3.665,4.22
					s-2.56-4.944-5.539-1.522c-5.03,5.778-3.032,14.539-3.032,14.539s0.683,2.065,4.227,2.001c0,0,1.33,5.187,7.03,3.083
					c0,0,4.582,4.162,7.387-0.029C338.546,1499.043,343.683,1503.191,345.774,1496.557z"/>
			</g>
		</g>
		<g>
			<path style="fill:#FCCCA2;" d="M436.685,1272.922c-5.249,13.339-18.742,25.164-22.694,29.857
				c-2.223,2.688-13.74,20.349-23.343,35.539c-2.809,4.478-5.465,8.708-7.657,12.32c-0.031,0-0.031,0-0.031,0
				c-3.551,5.805-5.959,9.911-6.021,10.498c-0.247,2.162-9.502,25.613-14.164,50.768c-3.757,20.267-7.604,54.582-7.604,54.582
				l-25.103-5.681c0,0,5.496-86.362,15.037-104.548c10.189-19.453,37.206-79.446,37.206-79.446s23.065-51.44,52.892-33.1
				C435.203,1243.713,441.966,1259.584,436.685,1272.922z"/>
		</g>
		<path style="fill:#FCCCA2;" d="M476.208,1350.608c-4.106,4.91-2.1,13.833-0.803,21.613c0.493,2.965,0.895,5.744,0.833,8.059
			c-0.03,1.05,0.226,3.197-0.093,6.114c-6.348,58.181,0.278,81.791-1.852,89.326c-0.247,0.832-1.05,1.574-2.408,2.223
			c-5.032,2.501-17.23,3.952-32.081,4.137c-1.976,0.031-4.045,0.031-6.143,0c-14.821-0.093-31.525-1.389-46.007-3.922
			c-2.377-0.431-4.693-0.863-6.916-1.358c-2.934-0.616-5.712-1.327-8.306-2.068c-0.927-0.247-1.822-0.524-2.686-0.802
			c0,0,21.799-56.998,27.388-68.208c4.322-8.737-1.05-44.152-6.484-67.403c-1.852-7.935-3.705-14.449-5.188-18.001
			c-4.168-10.065-2.902-43.412,9.603-63.976c3.86-6.299,8.77-11.394,14.914-14.234c1.143-0.525,2.316-0.988,3.551-1.358
			c0.679-0.186,1.39-0.37,2.1-0.525c0,0,0.154,0.124,0.463,0.402c2.377,2.037,13.555,11.608,22.571,19.761
			c1.698,1.543,3.334,3.025,4.816,4.415l0.031,0.03c1.451,1.359,2.778,2.595,3.859,3.674c2.192,2.162,5.619,5.744,9.603,10.036
			l0.772,0.864c11.857,12.876,27.975,31.617,30.228,38.843c1.327,4.262,0.463,9.479-1.42,14.636
			C484.02,1339.708,479.696,1346.408,476.208,1350.608z"/>
		<path style="fill:#EEA886;" d="M413.468,1240.354c1.231-10.165-1.603-24.547-1.603-24.547s37.788,14.562,31.739,19.574
			c-1.576,1.307-2.569,3.686-3.176,6.491c-1.729,7.971-0.347,19.392-0.347,19.392l13.113,13.705
			C458.181,1279.873,412.869,1245.293,413.468,1240.354z"/>
		<path style="fill:#A77860;" d="M443.038,1237.354c-1.575,1.307-2.266,3.084-2.872,5.89c-14.779-7.601-22.352-21.307-22.595-21.688
			C425.961,1230.624,443.038,1237.354,443.038,1237.354z"/>
		<path style="fill:#EDDAD3;" d="M413.728,1237.041l28.901,17.409l1.189,9.354l13.928,15.597c0,0-30.66-23.905-47.781-37.306
			L413.728,1237.041z"/>
		<path style="fill:#FAB46C;" d="M411.822,1142.229c0,0-10.454,5.03-12.468,26.873
			C399.354,1169.103,391.44,1146.017,411.822,1142.229z"/>
		<g>
			<path style="fill:#EEA886;" d="M471.455,1155.347c0,0,8.052,8.861,4.229,33.931c0,0,1.442,20.021,4.36,23.613
				c2.918,3.593-8.377,4.445-9.657,6.903c-1.28,2.459-5.023,12.605-11.056,19.296c-7.07,7.843-47.133-14.476-48.559-26.576
				c-1.426-12.101-26.331-64.695,16.33-65.412S471.455,1155.347,471.455,1155.347z"/>
		</g>
		<g>
			<path style="fill:#E8734D;" d="M476.603,1180.563c0,0,6.094-49.71-47.428-43.985c-50.983,5.453-22.629,65.008-16.555,83.784
				c0,0-0.085-29.366,24.212-29.366C461.13,1190.996,465.867,1185.818,476.603,1180.563z"/>
		</g>
		<g>
			<path style="fill:#EEA886;" d="M433.173,1183.548c-2.829-5.396-13.341-2.982-12.463,5.102
				c0.878,8.084,8.906,16.428,11.819,12.646C435.443,1197.514,437.328,1191.473,433.173,1183.548z"/>
		</g>
		<path style="fill:#8A6F59;" d="M476.238,1380.28c-0.03,1.05-0.061,3.18-0.093,6.114c-0.494,0.307-11.979,7.44-17.414,0.802
			c-5.403-6.546-42.671-74.475-44.987-78.704c1.451,2.068,13.432,19.112,27.851,35.261c11.054,12.382,23.528,24.239,33.811,28.468
			C475.898,1375.186,476.3,1377.965,476.238,1380.28z"/>
		<path style="fill:#FCCCA2;" d="M406.804,1264.853c-4.86,3.084-12.479,14.606-4.06,28.424c8.692,14.266,24.33,29.857,29.543,37.474
			c5.213,7.617,32.26,45.693,38.238,43.593c5.979-2.102,15.772-8.421,29.097-13.976c12.755-5.318,65.884-33.046,65.884-33.046
			l-10.587-20.316c0,0-11.964,4.929-22.458,9.638c-10.494,4.71-34.479,12.351-55.681,19.475c0,0-24.917-32.821-28.597-39.167
			C444.504,1290.604,428.663,1250.979,406.804,1264.853z"/>
	</g>
	<g>
		
			<linearGradient id="SVGID_00000181791336921024065220000015694293584183260347_" gradientUnits="userSpaceOnUse" x1="129.2998" y1="993.8976" x2="294.3064" y2="993.8976">
			<stop  offset="0" style="stop-color:#186DA1"/>
			<stop  offset="1" style="stop-color:#639C38"/>
		</linearGradient>
		<path style="fill:url(#SVGID_00000181791336921024065220000015694293584183260347_);" d="M153.399,1053.415
			c-32.133-32.817-32.133-86.216,0-119.035c32.27-32.956,84.534-32.958,116.807,0c32.134,32.819,32.134,86.217,0,119.035
			C237.942,1086.367,185.672,1086.377,153.399,1053.415z M159.595,940.445c-28.857,29.475-28.857,77.432,0,106.904
			c28.861,29.476,75.55,29.483,104.416,0c28.859-29.473,28.859-77.43,0-106.904C235.149,910.968,188.462,910.962,159.595,940.445z"
			/>
	</g>
	
		<linearGradient id="SVGID_00000114052038368779427020000012893940806860722857_" gradientUnits="userSpaceOnUse" x1="270.3164" y1="1079.5819" x2="348.5534" y2="1079.5819">
		<stop  offset="0" style="stop-color:#186DA1"/>
		<stop  offset="1" style="stop-color:#639C38"/>
	</linearGradient>
	<path style="fill:url(#SVGID_00000114052038368779427020000012893940806860722857_);" d="M311.022,1110.228l-40.706-43.727
		l6.348-5.907l40.705,43.727c5.444,5.843,14.171,5.28,18.975-0.018l0.258-0.283c5.033-5.556,4.198-14.274-1.847-18.883
		l-47.505-36.225l5.259-6.896l47.504,36.225c10.06,7.675,11.452,22.29,3.008,31.604l-0.258,0.284
		C334.326,1119.443,319.648,1119.496,311.022,1110.228z"/>
	
		<linearGradient id="SVGID_00000016057616437513451530000004964323700040259258_" gradientUnits="userSpaceOnUse" x1="1214.5844" y1="688.0943" x2="1399.3253" y2="688.0943">
		<stop  offset="0" style="stop-color:#186DA1"/>
		<stop  offset="1" style="stop-color:#639C38"/>
	</linearGradient>
	<path style="fill:url(#SVGID_00000016057616437513451530000004964323700040259258_);" d="M1393.177,683.786
		c-6.304,12.226-13.229,22.707-18.282,30.353c-3.058,4.624-5.465,8.274-6.743,10.765c-3.95,7.673-3.603,43.407-2.444,64.134
		c0.12,2.294-1.683,4.333-4.114,4.333c-2.162,0-3.978-1.687-4.105-3.877c-0.31-5.72-2.92-56.179,3.348-68.349
		c1.487-2.893,4.005-6.706,7.198-11.532c4.955-7.499,11.732-17.762,17.826-29.595c11.733-22.753,4.37-59.053-25.271-76.824
		c-51.18-30.69-94.806,5.291-96.64,6.833c-0.146,0.127-0.31,0.246-0.475,0.355c-0.219,0.137-22.388,14.333-22.388,36.027l0.01,4.926
		c0.026,11.806,0.055,22.962-1.086,28.601c-0.867,4.334-14.697,28.51-16.649,32.414c-0.557,1.123-0.603,1.798-0.502,1.953
		c0.584,0.912,4.078,2.253,10.92,2.007c1.359-0.056,2.655,0.446,3.641,1.405c2.235,2.171,2.217,5.71,2.171,12.125
		c-0.046,7.544-0.109,18.939,4.662,24.458c4.625,5.364,14.998,4.16,28.135,2.646l4.051-0.466c2.5-0.283,4.854,0.566,6.633,2.372
		c6.24,6.367,4.314,25.297,3.576,30.945c-0.292,2.253-2.363,3.841-4.607,3.549c-2.254-0.302-3.841-2.363-3.549-4.616
		c1.414-10.848,0.767-22.588-1.332-24.158l-3.831,0.538c-14.935,1.725-27.835,3.221-35.307-5.428
		c-6.787-7.864-6.705-20.591-6.65-29.887c0.009-1.752,0.019-3.777-0.046-5.236c-5.893-0.11-12.507-1.332-15.381-5.803
		c-1.277-1.988-2.309-5.355,0.063-10.08c2.053-4.115,15.336-27.333,15.947-30.362c0.967-4.826,0.939-16.585,0.921-26.958
		l-0.009-4.945c0-25.271,23.255-41.072,26.019-42.851c3.878-3.129,51.673-39.939,105.937-7.417
		C1398.423,616.285,1406.605,657.722,1393.177,683.786z"/>
	
		<linearGradient id="SVGID_00000119088263247394000810000009920549413109864356_" gradientUnits="userSpaceOnUse" x1="1284.1436" y1="652.7603" x2="1341.6954" y2="652.7603">
		<stop  offset="0" style="stop-color:#186DA1"/>
		<stop  offset="1" style="stop-color:#639C38"/>
	</linearGradient>
	<path style="fill:url(#SVGID_00000119088263247394000810000009920549413109864356_);" d="M1314.233,689.412h-8.225
		c0-11.988,6.27-24.025,16.773-32.193c10.807-7.416,10.694-15.08,10.69-15.155c-0.007-9.879-9.226-17.731-20.557-17.731
		s-20.548,7.851-20.548,17.505h-8.225c0-14.189,12.908-25.729,28.772-25.729c15.866,0,28.773,11.541,28.773,25.729
		c0.021,0.271,0.495,12.047-14.061,22.017C1319.316,670.331,1314.233,679.942,1314.233,689.412z"/>
	<g>
		<g>
			<g>
				
					<linearGradient id="SVGID_00000123425699791347658970000004646173055928152469_" gradientUnits="userSpaceOnUse" x1="1304.5469" y1="705.2889" x2="1317.0361" y2="705.2889">
					<stop  offset="0" style="stop-color:#186DA1"/>
					<stop  offset="1" style="stop-color:#639C38"/>
				</linearGradient>
				<path style="fill:url(#SVGID_00000123425699791347658970000004646173055928152469_);" d="M1317.036,705.29
					c0,3.448-2.801,6.248-6.24,6.248c-3.449,0-6.249-2.801-6.249-6.248c0-3.449,2.8-6.25,6.249-6.25
					C1314.235,699.04,1317.036,701.841,1317.036,705.29z"/>
			</g>
		</g>
	</g>
	
		<linearGradient id="SVGID_00000054984840323262998870000002707824965321259930_" gradientUnits="userSpaceOnUse" x1="904.5625" y1="412.7396" x2="1244.7285" y2="412.7396">
		<stop  offset="0" style="stop-color:#186DA1"/>
		<stop  offset="1" style="stop-color:#639C38"/>
	</linearGradient>
	<path style="fill:url(#SVGID_00000054984840323262998870000002707824965321259930_);" d="M1143.312,348.55
		c-7.155,0-14.128,0.577-20.86,1.673c-16.151-32.343-57.252-55.382-105.269-55.382c-62.102,0-112.62,38.515-112.62,85.857
		c0,30.362,20.817,58.222,54.679,73.684l-5.172,32.682c-0.408,2.558,0.703,5.13,2.839,6.592c2.106,1.457,4.954,1.561,7.183,0.254
		l46.977-27.51c12.663,0.63,27.504-0.644,41.692-4.245c8.419,12.891,21.449,23.925,37.952,31.627l-4.555,29.098
		c-0.407,2.572,0.717,5.144,2.868,6.592c2.222,1.509,5.019,1.523,7.183,0.226l41.817-24.74
		c58.01,2.311,106.703-33.463,106.703-78.154C1244.729,383.664,1199.228,348.55,1143.312,348.55z M1009.957,452.878
		c-1.335-0.113-2.727,0.211-3.907,0.899l-36.505,21.379l3.781-23.825c0.492-3.093-1.209-6.1-4.105-7.267
		C937.623,431.217,918,406.941,918,380.698c0-39.935,44.488-72.419,99.183-72.419c54.693,0,99.183,32.484,99.183,72.419
		C1116.365,426.701,1059.543,456.662,1009.957,452.878z M1136.915,491.421c-1.378-0.1-2.769,0.225-3.949,0.927l-31.332,18.54
		l3.148-20.129c0.492-3.079-1.209-6.072-4.076-7.252c-14.787-6.073-26.638-15.013-34.495-25.541
		c16.179-5.988,30.208-14.843,40.933-25.708h92.576v-14.057h-81.261c2.586-4.049,4.779-8.28,6.508-12.651h74.753v-14.057h-70.831
		c0.604-3.542,0.9-7.141,0.9-10.795c0-6.045-0.829-11.948-2.391-17.642c5.16-0.703,10.487-1.068,15.913-1.068
		c48.522,0,87.993,29.082,87.993,64.814C1231.305,468.84,1179.869,494.86,1136.915,491.421z"/>
	
		<linearGradient id="SVGID_00000169552291050053634960000010471882375486246322_" gradientUnits="userSpaceOnUse" x1="1100.6494" y1="452.0974" x2="1199.0449" y2="452.0974">
		<stop  offset="0" style="stop-color:#186DA1"/>
		<stop  offset="1" style="stop-color:#639C38"/>
	</linearGradient>
	
		<rect x="1100.649" y="445.772" style="fill:url(#SVGID_00000169552291050053634960000010471882375486246322_);" width="98.396" height="12.651"/>
	<g>
		<path style="fill:#EBC284;" d="M931.523,1575.222c-25.633,14.16-53.099,25.283-82.432,33.376
			c-29.331,8.091-60.181,12.137-92.546,12.137c-53.275,0-101.823-10.272-145.648-30.85c-43.839-20.558-81.262-47.867-112.27-81.925
			c-31.023-34.04-55.123-72.982-72.317-116.821c-17.195-43.824-25.792-89.006-25.792-135.531c0-47.19,8.929-92.706,26.804-136.545
			c17.858-43.824,42.811-82.592,74.846-116.314c32.018-33.711,69.947-60.515,113.786-80.409
			c43.824-19.883,91.693-29.84,143.624-29.84c53.26,0,101.809,10.62,145.648,31.86c43.822,21.242,81.247,49.055,112.27,83.444
			c31.006,34.39,54.949,73.505,71.81,117.329c16.848,43.839,25.286,88.342,25.286,133.508c0,45.862-8.091,89.686-24.274,131.487
			c-16.183,41.816-39.114,79.239-68.777,112.268l103.167,113.282H968.948L931.523,1575.222z M757.557,1473.067
			c26.961,0,50.572-4.378,70.8-13.15l-115.303-127.441h155.761l44.504,49.56c10.778-18.869,18.87-39.097,24.275-60.685
			c5.388-21.571,8.091-43.493,8.091-65.742c0-27.642-4.046-54.444-12.138-80.409c-8.092-25.95-20.229-48.881-36.411-68.778
			c-16.184-19.881-35.906-35.906-59.169-48.043c-23.263-12.137-50.066-18.207-80.41-18.207c-31.702,0-59.169,6.242-82.433,18.711
			c-23.263,12.485-42.827,29.001-58.662,49.562c-15.852,20.577-27.656,43.84-35.401,69.789
			c-7.76,25.965-11.632,52.437-11.632,79.399c0,27.655,4.047,54.459,12.139,80.408c8.092,25.965,20.055,48.896,35.906,68.775
			c15.835,19.898,35.558,35.906,59.169,48.046C700.237,1466.997,727.214,1473.067,757.557,1473.067z"/>
		<path style="fill:#EBC284;" d="M1668.849,1615.679l-47.537-50.573c-29.68,20.229-61.035,35.399-94.064,45.516
			c-33.046,10.113-66.754,15.17-101.144,15.17c-39.114,0-74.009-6.241-104.683-18.709c-30.691-12.472-56.482-28.986-77.376-49.563
			c-20.907-20.559-36.918-43.996-48.042-70.293c-11.127-26.299-16.69-53.605-16.69-81.928c0-21.572,3.035-41.627,9.104-60.18
			c6.068-18.538,14.318-35.56,24.779-51.079c10.447-15.502,22.41-29.993,35.906-43.489c13.481-13.481,27.642-25.95,42.481-37.426
			c-24.274-29.662-41.47-55.123-51.584-76.362c-10.113-21.24-15.172-44.663-15.172-70.296c0-27.641,5.059-52.421,15.172-74.339
			c10.114-21.906,24.274-40.616,42.48-56.136c18.206-15.505,39.604-27.31,64.226-35.399c24.608-8.094,51.411-12.14,80.41-12.14
			c25.618,0,50.571,3.208,74.846,9.609c24.274,6.417,45.673,16.53,64.228,30.343c18.538,13.828,33.534,31.024,45.009,51.583
			c11.457,20.576,17.193,45.01,17.193,73.332c0,38.433-10.113,72.315-30.343,101.648c-20.229,29.333-46.526,56.136-78.892,80.409
			l112.27,119.348c8.755-20.226,15.678-42.305,20.734-66.249c5.057-23.926,7.585-50.065,7.585-78.385h130.477
			c-0.68,49.908-6.575,94.918-17.7,135.027c-11.126,40.125-26.471,76.362-46.021,108.729l154.749,161.831H1668.849z
			 M1443.299,1499.363c31.687,0,61.697-9.104,90.017-27.309l-142.612-151.715c-17.542,13.497-31.354,27.15-41.468,40.963
			c-10.115,13.828-15.172,28.826-15.172,45.01c0,10.792,2.354,21.746,7.08,32.869c4.708,11.127,11.79,21.083,21.24,29.84
			c9.435,8.771,20.893,16.023,34.389,21.746C1410.253,1496.502,1425.756,1499.363,1443.299,1499.363z M1371.486,1060.4
			c0,10.791,3.366,20.733,10.115,29.836c6.731,9.103,18.869,22.425,36.411,39.952c20.893-13.481,36.411-25.617,46.525-36.412
			c10.115-10.779,15.172-23.595,15.172-38.437c0-14.822-4.898-26.627-14.665-35.399c-9.783-8.753-22.427-13.149-37.93-13.149
			c-16.862,0-30.343,5.06-40.457,15.173C1376.543,1032.077,1371.486,1044.896,1371.486,1060.4z"/>
		<path style="fill:#EBC284;" d="M2151.282,897.556h149.692l261.963,718.123h-169.923l-55.629-160.818h-223.528l-54.618,160.818
			h-169.92L2151.282,897.556z M2310.077,1340.567l-83.949-253.87l-85.973,253.87H2310.077z"/>
	</g>
	<g>
		<rect x="1385.208" y="1505.624" style="fill:#CFBEB8;" width="27.204" height="283.405"/>
		<rect x="840.351" y="1505.624" style="fill:#CFBEB8;" width="27.204" height="283.405"/>
		<rect x="783.587" y="1587.609" style="fill:#D88A51;" width="683.016" height="70.498"/>
		<rect x="783.587" y="1587.609" style="fill:#D88A51;" width="683.016" height="55.032"/>
		<rect x="781.276" y="1461.793" style="fill:#B57341;" width="683.016" height="77.786"/>
		<g>
			<path style="fill:#464B7A;" d="M1110.394,1813.165c0,0,9.604,12.213,21.201,17.71c9.17,4.347,23.525,11.126,23.396,19.018
				c-0.129,7.893-35.001,6.479-49.749-0.637c-14.749-7.115-23.287-8.958-25.487-14.958c-2.199-6.001,3.461-21.72,3.36-23.611
				C1082.99,1808.35,1110.394,1813.165,1110.394,1813.165z"/>
		</g>
		<g>
			<path style="fill:#EEA886;" d="M1110.644,1806.363c0,0-0.177,8.047-0.423,8.176c-0.245,0.129-25.091,2.503-26.715-2.479
				c-1.423-4.366-1.243-9.533-1.243-9.533L1110.644,1806.363z"/>
		</g>
		<g>
			<path style="fill:#464B7A;" d="M1235.062,1793.159c0,0,9.604,12.213,21.202,17.71c9.17,4.347,26.507,9.617,26.378,17.509
				c-0.13,7.892-37.095,8.359-49.563-2.257c-10.364-8.825-26.457-5.829-28.656-11.83c-2.199-6,3.796-21.638,3.695-23.529
				C1207.994,1788.425,1235.062,1793.159,1235.062,1793.159z"/>
		</g>
		<g>
			<path style="fill:#EEA886;" d="M1235.312,1786.358c0,0-0.177,8.046-0.422,8.176c-0.245,0.129-26.067,2.721-26.715-2.479
				c-0.499-4.01,0.578-9.287,0.578-9.287L1235.312,1786.358z"/>
		</g>
		<g>
			<path style="fill:#323657;" d="M1140.267,1543.422c0,0,59.195,25.653,69.229,32.426c10.034,6.771,45.157,23.607,49.622,39.614
				c4.466,16.007,2.65,40.551-3.506,65.484c-6.156,24.935-19.043,100.167-18.12,109.095c0,0-20.34,4.68-33.576-3.016
				c0,0-0.051-102.919,1.489-111.23c1.539-8.311-1.094-33.553-12.706-38.785c-11.612-5.233-67.637-19.086-75.024-21.24
				c-7.388-2.155-23.702-3.387-23.702-3.387s-44.877-35.707-43.217-49.559C1052.415,1548.972,1060.782,1534.978,1140.267,1543.422z"
				/>
		</g>
		<g>
			<path style="fill:#323657;" d="M1096.97,1552.893c0,0,25.45,55.1,29.711,69.875c4.262,14.776,9.736,25.834,8.813,42.149
				c-0.923,16.314-10.015,56.738-13.135,71.213c-3.096,14.363-9.938,73.17-9.938,73.17s-22.093,3.023-33.175-2.209
				c0,0-0.325-67.041-2.173-85.203c-1.847-18.161-1.603-56.639-1.603-61.872s-38.588-40.763-41.974-49.688
				c-3.387-8.928-6.324-40.6-2.63-50.759C1034.561,1549.41,1034.062,1531.96,1096.97,1552.893z"/>
		</g>
		<g>
			<path style="fill:#5C64A1;" d="M1141.313,1363.692c0,0,10.121,5.424,14.636,15.549c4.515,10.124,5.839,10.507,8.209,32.152
				c1.107,10.114,1.916,31.108,2.326,40.822c0.41,9.714,13.704,32.418,13.567,34.059c0,0-26.433,9.325-27.522,21.17
				c-1.09,11.844-15.182-10.951-15.182-10.951S1125.729,1362.176,1141.313,1363.692z"/>
		</g>
		<g>
			<path style="fill:#EEA886;" d="M1113.809,1264.998c0,0,23.225,6.638,17.581,49.802c-6.226,47.612-40.225,34.889-48.844,26.063
				c-8.619-8.824-15.393-27.91-15.803-42.276S1069.069,1245.502,1113.809,1264.998z"/>
		</g>
		<g>
			<path style="fill:#5C64A1;" d="M1066.732,1357.281c0,0-31.799,2.668-37.135,6.568c-5.336,3.898-30.579,15.802-37.557,20.521
				c-6.977,4.721-43.176,27.769-50.485,36.428c-7.449,8.825-16.829,18.778-13.75,27.397c3.078,8.62,33.656,33.247,41.045,37.968
				c7.388,4.72,27.988,23.178,27.988,23.178s19.777-9.528,18.136-16.711c-1.642-7.184-36.684-37.456-39.762-41.971
				c-3.079-4.516-8.21-6.362-2.463-11.288c5.746-4.926,45.354-26.885,46.381-25.858c1.026,1.025,9.44,19.086,10.877,23.807
				c1.437,4.72,8.28,52.775,8.28,52.775l-6.359,62.797c0,0,87.363,12.45,117.636-5.404c0,0-4.425-44.291-4.015-48.189
				c0.411-3.9,12.313-63.003,12.314-74.087c0.002-25.653-8.004-55.616-15.598-60.952c-7.594-5.336-51.922-9.03-51.922-9.03
				L1066.732,1357.281z"/>
		</g>
		<g>
			<path style="fill:#EEA886;" d="M1058.226,1358.125c0,0,9.242,50.873,44.638,55.389s23.814-53.746,23.814-53.746
				S1102.108,1349.323,1058.226,1358.125z"/>
		</g>
		<g>
			<path style="fill:#EEA886;" d="M1074.68,1373.905c0,0,3.907-33.526-0.719-46.304c-4.623-12.774,36.703,18.178,36.703,18.178
				s-0.015,0.99-0.021,2.59c-0.009,1.597-0.011,3.801,0.012,6.229c0.056,6.259,0.271,14.011,0.965,16.707
				C1112.852,1376.095,1074.68,1373.905,1074.68,1373.905z"/>
		</g>
		<g>
			<path style="fill:#EB4747;" d="M1132.94,1296.228c0,0-0.798-15.905-20.5-12.622s-38.687,18.684-38.84,43.204
				c0,0-27.243-44.572-5.626-63.042C1089.592,1245.297,1132.94,1253.027,1132.94,1296.228z"/>
		</g>
		<g>
			<path style="fill:#272A45;" d="M1107.419,1284.712c0,0,21.2,20.34,27.151,20.852
				C1134.57,1305.564,1137.833,1276.07,1107.419,1284.712z"/>
		</g>
		<g>
			<path style="fill:#A77860;" d="M1110.655,1354.598c-0.002,0-0.002,0-0.002,0s-15.995,1.931-28.102-13.729
				c0.302,0.301,11.805,11.532,28.09,7.5h0.002C1110.635,1349.966,1110.633,1352.17,1110.655,1354.598z"/>
		</g>
		<path style="fill:#EEA886;" d="M1079.289,1305.564c-1.35-4.309-6.343-10.121-8.657-3.691c-2.314,6.43,4.081,21.088,6.799,19.03
			C1080.147,1318.847,1081.773,1313.5,1079.289,1305.564z"/>
		<polygon style="fill:#CFBEB8;" points="1059.636,1571.799 1171.8,1559.66 1121.131,1597.779 		"/>
		<polygon style="fill:#EDDAD3;" points="1121.131,1597.779 1059.636,1578.4 1059.636,1571.799 1123.203,1590.652 		"/>
		<path style="fill:#444A78;" d="M1145.967,1507.977c0,0-0.42-8.997,0.248-12.623c0.668-3.626,11.384-60.623,11.489-67.233
			c0,0,1.979,48.606-5.934,82.736C1143.857,1544.986,1145.967,1507.977,1145.967,1507.977z"/>
		<polygon style="fill:#EDDAD3;" points="1121.131,1597.779 1153.835,1485.338 1278.206,1473.199 1244.119,1576.696 		"/>
		<path style="fill:#EEA886;" d="M1014.763,1493.494c0,0,3.034,6.766,7.898,11.017c4.863,4.251,8.702,15.221,9.014,19.017
			c0.311,3.794,4.521,32.364,3.324,34.766c-1.197,2.402-5.015-1.414-5.294-4.198c-0.279-2.784-4.731-26.543-4.731-26.543
			s3.709,28.579,2.234,30.564c-1.475,1.984-4.972,2.081-6.606-1.777c0,0-5.455,3.129-6.716-3.865l-2.56-13.938
			c0,0,0.061,7.426-3.441,2.799c-1.862-2.462-2.91-18.48-4.112-21.601c-1.203-3.122-1.652-14.952-1.652-14.952L1014.763,1493.494z"
			/>
		<path style="fill:#5C64A1;" d="M996.839,1509.342c0,0,17.423-8.097,19.885-15.027c0,0-0.863-5.696-33.691-35.686L996.839,1509.342
			z"/>
	</g>
	<g>
		<g>
			<path style="fill:#363A5E;" d="M2405.376,1782.828c0,0-16.141,22.674-13.926,26.268c2.213,3.593,19.187,4.106,29.518,0
				c10.332-4.108,10.578-30.681,15.251-42.098c1.957-4.779-2.23-18.889-8.117-19.912c-5.888-1.024-12.291,1.982-12.291,1.982
				S2421.917,1765.15,2405.376,1782.828z"/>
		</g>
		<g>
			<g>
				<path style="fill:#EEA886;" d="M2415.702,1748.886c0,0-3.396,9.655-4.637,18.874c-1.029,7.646-11.498,23.881-11.006,25.935
					c0.491,2.053,13.774,3.913,19.187-1.381c5.411-5.294,8.894-20.69,10.085-29.898c1.11-8.577,2.511-12.813,2.511-12.813
					S2420.868,1743.238,2415.702,1748.886z"/>
			</g>
		</g>
		<g>
			<path style="fill:#363A5E;" d="M2545.859,1783.204c0,0-15.558,22.298-13.344,25.892c2.214,3.593,19.187,4.106,29.519,0
				c10.331-4.108,10.577-30.681,15.251-42.098c1.956-4.779-2.23-18.889-8.118-19.912c-5.887-1.024-12.791,2.201-12.791,2.201
				S2562.401,1765.527,2545.859,1783.204z"/>
		</g>
		<g>
			<g>
				<path style="fill:#EEA886;" d="M2556.376,1749.287c0,0-1.229,10.523-3.197,17.968c-1.969,7.444-12.545,24.386-12.054,26.44
					c0.492,2.053,13.775,3.913,19.187-1.381c5.412-5.294,9.594-20.62,10.086-29.898c0.492-9.278-1.23-15.329-1.23-15.329
					S2561.542,1743.64,2556.376,1749.287z"/>
			</g>
		</g>
		<g>
			<g>
				<path style="fill:#EEA886;" d="M2478.63,1380.153c0,0-13.849,67.233-17.029,84.161c-3.182,16.929-12.088,98.912-13.041,112.854
					c-0.955,13.94-14.452,66.467-13.816,71.445c0.637,4.979-20.012,104.993-20.012,104.993s7.052,5.923,14.485,0.534
					c3.823-2.771,45.303-93.633,45.303-118.525c0-34.41,24.385-79.329,27.53-87.027c29.229-71.517,23.475-93.383,27.291-98.029
					c3.817-4.647,4.148,2.87,6.375,13.159c2.227,10.29,6.994,99.244,9.857,110.529c2.862,11.285,0.64,49.456,2.229,68.708
					c1.591,19.251,8.573,106.332,8.573,106.332s5.408,8.842,12.995,0.229c1.633-1.854,13.099-97.003,13.417-119.906
					c0.318-22.902,0.657-54.487,1.272-64.392c5.894-94.906,20.377-108.461-2.435-175.629
					C2538.914,1263.827,2478.63,1380.153,2478.63,1380.153z"/>
			</g>
		</g>
		<g>
			<path style="fill:#3F446E;" d="M2571.64,1361.363c0,0,39.457,57.624,22.47,180.206c0,0-93.587,13.283-143.726-15.364
				c0,0,20.733-126.386,28.246-146.052C2486.144,1360.486,2571.64,1361.363,2571.64,1361.363z"/>
		</g>
		<g>
			<polygon style="fill:#363A5E;" points="2436.651,1765.004 2436.651,1788.742 2433.7,1788.742 2433.7,1770.395 			"/>
		</g>
		<g>
			<polygon style="fill:#363A5E;" points="2577.718,1765.004 2577.718,1788.742 2574.766,1788.742 2574.766,1770.395 			"/>
		</g>
		<path style="fill:#EEA886;" d="M2524.862,1105.845c0,0-26.425,26.616-17.426,60.892c9,34.275,23.461,34.467,39.399,19.723
			c15.939-14.744,25.322-30.254,27.429-47.487C2576.37,1121.738,2548.988,1082.101,2524.862,1105.845z"/>
		<path style="fill:#EEA886;" d="M2519.691,1220.16c0,0,3.918-8.965,6.664-19.06c0.484-1.778,0.933-3.594,1.315-5.401
			c1.348-6.349,1.899-12.605,0.446-16.898c-4.213-12.446,26.425-3.829,26.425-3.829s-5.937,32.934,0,44.041
			C2560.478,1230.117,2519.691,1220.16,2519.691,1220.16z"/>
		<path style="fill:#EDDAD3;" d="M2597.341,1235.851c-4.822-9.624-8.429-12.725-17.75-15.668
			c-5.217-1.646-28.518-7.714-28.518-7.714l-27.988-1.027c0,0-19.251,3.205-34.184,8.377c-14.938,5.171-34.506,33.467-34.506,33.467
			s26.999,63.383,32.171,81.572c5.166,18.19,1.722,46.338,1.722,46.338c32.363,17.618,84.252-1.722,84.252-1.722
			c-3.936-14.213-4.098-30.808-2.031-42.579c0.244-1.389,0.518-2.711,0.821-3.951c0.278-1.135,0.663-2.756,1.108-4.569
			c0.021-0.081,0.041-0.162,0.057-0.243c20.586,2.107,39.885,2.964,40.391-1.165
			C2615.155,1308.371,2603.977,1249.081,2597.341,1235.851z M2583.079,1308.119c-0.829-0.124-2.594-0.135-4.458-0.302
			c2.284-6.378,4.833-12.025,4.833-12.025C2584.915,1299.86,2590.46,1309.225,2583.079,1308.119z"/>
		<path style="fill:#E8734D;" d="M2533.479,1124.993c0,0,12.638,22.978,20.488,31.212c7.851,8.233,6.93,14.771,6.93,14.771
			s30.602-37.748,8.772-60.535c-21.829-22.786-49.978-13.595-58.211,6.319c-8.234,19.914-5.219,44.239-5.219,44.239
			S2506.479,1137.631,2533.479,1124.993z"/>
		<path style="fill:#E8734D;" d="M2541.817,1100.934c0,0-3.056-16.82,23.323-23.511c26.378-6.69,38.229,23.702,34.979,42.244
			c-3.249,18.541-25.805,65.563-13.571,71.681c12.233,6.116,17.013-7.072,17.013-7.072s-3.823,23.128-20.835,17.776
			c-17.013-5.352-14.72-42.938-12.153-57.918C2573.14,1129.153,2541.817,1100.934,2541.817,1100.934z"/>
		<path style="fill:#A77860;" d="M2550.313,1183.126c-0.102,0.241-6.771,15.592-23.958,17.974c0.484-1.778,0.933-3.594,1.315-5.401
			C2527.671,1195.698,2537.09,1197.598,2550.313,1183.126z"/>
		<path style="fill:#CFBEB8;" d="M2583.079,1296.016c0,0-1.259,2.654-4.711,13.115c-3.516-29.381-1.678-44.674-1.678-44.674
			C2577.072,1280.158,2583.079,1296.016,2583.079,1296.016z"/>
		<path style="fill:#EDDAD3;" d="M2545.927,1097.406c0,0,18.722,3.597,28.062,18.848c0,0-1.894-13.811-11.213-17.791
			C2553.456,1094.483,2545.927,1097.406,2545.927,1097.406z"/>
		<path style="fill:#CFBEB8;" d="M2572.438,1328.374c-0.445,1.813-0.83,3.434-1.108,4.569c-0.304,1.24-0.577,2.563-0.821,3.951
			c-11.594-6.307-19.922-11.235-19.922-11.235C2553.708,1326.358,2572.438,1328.374,2572.438,1328.374z"/>
		<path style="fill:#EEA886;" d="M2552.64,1212.878l-32.948,26.857l3.394-28.294
			C2523.085,1211.442,2542.298,1207.294,2552.64,1212.878z"/>
		<polygon style="fill:#D6C5BE;" points="2529.213,1235.177 2519.691,1239.735 2552.051,1207.657 		"/>
		<path style="fill:#494F80;" d="M2574.379,1326.049c-4.533,18.793,12.245,61.089,12.245,61.089l-33.255,10.396
			c-4.785,1.496-9.821-1.438-10.876-6.339c-4.454-20.696-14.892-71.638-16.139-99.96c-1.591-36.136,24.719-78.766,24.719-78.766
			c46.764,8.023,33.943,78.766,33.943,78.766s-1.697,4.458-3.967,11.423c0,0,0,0,0,0.005c-0.572,1.748-1.175,3.657-1.803,5.693
			C2577.646,1313.583,2575.925,1319.656,2574.379,1326.049z"/>
		<path style="fill:#494F80;" d="M2519.772,1212.987l0.576-1.546c0,0-23.947,3.642-36.119,9.721
			c-12.171,6.078-35.471,37.484-35.471,37.484l30.475,40.233c0.035,30.919-4.979,85.894-4.979,85.894l13.934,8.029
			c3.745,2.159,8.434-0.488,8.515-4.811c0.394-20.906,1.331-70.548,1.823-94.59c0.633-30.924,22.698-80.934,22.698-80.934
			C2520.733,1212.635,2520.252,1212.811,2519.772,1212.987z"/>
		<path style="fill:#EEA886;" d="M2476.353,1357.965c0,0,22.979,0.893,26.553,0c3.574-0.894,27.418-11.233,28.85-21.446
			c1.433-10.214-55.402,9.153-55.402,9.153V1357.965z"/>
		<polygon style="fill:#B8A9A4;" points="2547.648,1326.051 2454.396,1315.136 2496.522,1349.411 		"/>
		<polygon style="fill:#EDDAD3;" points="2496.522,1349.411 2547.648,1331.986 2547.648,1326.051 2494.799,1343.004 		"/>
		<g>
			<path style="fill:#EEA886;" d="M2520.559,1308.926c0,0-7.714,0.002-12.032-0.877c-3.343-0.681-11.652,0.257-13.77,2.133
				c-2.115,1.875-8.848,14.945-10.12,15.742c-1.273,0.798,0.651,2.644,2.889,1.717c0,0,2.052,5.719,7.118,3.578
				c5.066-2.141,8.505-6.815,11.158-7.639c2.653-0.823,18.103-4.976,18.103-4.976S2524.539,1307.534,2520.559,1308.926z"/>
		</g>
		<polygon style="fill:#FAE6DE;" points="2524.843,1206.222 2507.095,1234.332 2498.525,1239.735 2518.494,1211.743 		"/>
		<polygon style="fill:#D6C5BE;" points="2507.095,1234.332 2519.691,1239.735 2523.085,1211.442 2524.843,1206.222 		"/>
		<path style="fill:#494F80;" d="M2479.161,1344.816c0,0-0.957,11.872,0,14.361c0,0-57.509-5.744-62.87-13.786
			c-5.362-8.043-5.171-17.809-5.171-17.809L2479.161,1344.816z"/>
		<polygon style="fill:#EDDAD3;" points="2496.522,1349.411 2469.331,1248.309 2365.931,1237.394 2394.271,1330.455 		"/>
		<polygon style="fill:#FAE6DE;" points="2552.051,1207.657 2529.213,1235.177 2541.709,1246.32 2555.195,1213.376 		"/>
		<path style="fill:#3D426B;" d="M2581.817,1300.332c0,0-0.768,2.325-0.768,2.33c-0.572,1.748-1.175,3.657-1.803,5.693
			c-4.412,1.389-42.61-1.413-42.61-1.413S2568.606,1299.436,2581.817,1300.332z"/>
		<path style="fill:#494F80;" d="M2579.612,1307.608c-6.153-0.465-16.232-1.121-24.48-1.156
			c-12.834-0.055-34.783,1.375-34.783,1.375l2.617,13.714c0,0,38.88,6.316,60.113,7.8v0.001c0,0,28.023,3.217,30.105-0.963
			c2.083-4.179-0.688-31.025-5.247-55.212c-4.56-24.188-9.244-38.117-14.816-45.589c-5.572-7.471-35.009-13.292-35.009-13.292
			l24.969,81.73c0,0,3.582,7.289,3.398,10.434c-0.057,0.957-0.721,1.411-1.615,1.581c-0.629-0.055-2.01-0.173-3.916-0.321
			L2579.612,1307.608z"/>
	</g>
	<g>
		<path style="fill:#E8734D;" d="M418.88,1142.891c0,0-26.475-12.226-38.385,12.408c-11.911,24.634,23.183,60.987,11.726,75.832
			c-11.457,14.845-33.168,6.018-42.892,61.559c0,0,8.645-34.414,35.02-34.47c26.373-0.055,40.574-15.502,28.888-48.661
			c-11.686-33.158,7.403-27.498,7.178-37.865C420.188,1161.326,418.88,1142.891,418.88,1142.891z"/>
		<g>
			
				<linearGradient id="SVGID_00000076588717760166844740000009827237646483986080_" gradientUnits="userSpaceOnUse" x1="460.0511" y1="1578.5712" x2="506.268" y2="1734.752">
				<stop  offset="0" style="stop-color:#EB9B73"/>
				<stop  offset="1" style="stop-color:#EEA886"/>
			</linearGradient>
			<path style="fill:url(#SVGID_00000076588717760166844740000009827237646483986080_);" d="M551.962,1799.894
				c0,0-10.529,8.367-20.564,2.624c0,0-0.093-0.185-0.247-0.556c-3.613-7.72-43.413-93.155-50.268-109.274
				c-5.743-13.492-3.489-48.042-9.695-64.562c-1.08-2.872-2.439-5.218-4.106-6.793c-1.173-1.111-2.934-3.088-5.218-5.805
				c-8.893-10.715-25.258-32.915-40.325-57.246c-15.562-25.071-29.765-52.458-33.131-71.942c-0.524-2.933-0.803-5.683-0.772-8.183
				c0-0.493,0-0.926,0.031-1.389c0.926-18.989,22.817-11.549,45.142,1.174c2.346,1.327,4.692,2.716,7.009,4.137
				c1.142,0.709,2.284,1.42,3.427,2.132c19.916,12.534,37.546,26.708,37.546,26.708s24.393,68.453,30.753,90.004
				c0.371,1.267,0.68,2.347,0.927,3.273c4.323,16.643,3.705,34.088,6.206,41.065c2.501,6.823,32.328,150.061,33.254,154.538
				C551.962,1799.861,551.962,1799.894,551.962,1799.894z"/>
		</g>
		
			<linearGradient id="SVGID_00000082329064476761970870000003891997436884835989_" gradientUnits="userSpaceOnUse" x1="488.071" y1="1575.2236" x2="483.8878" y2="1676.2218">
			<stop  offset="0" style="stop-color:#CC8764"/>
			<stop  offset="1" style="stop-color:#EEA886"/>
		</linearGradient>
		<path style="fill:url(#SVGID_00000082329064476761970870000003891997436884835989_);" d="M511.544,1600.924
			c0,0-28.189,21.337-40.355,27.203c-1.08-2.872-2.439-5.218-4.106-6.793c-1.173-1.111-2.934-3.088-5.218-5.805
			c0,0,0.03,0,0.093-0.032C463.933,1614.541,498.453,1598.361,511.544,1600.924z"/>
		<g>
			<g>
				<g>
					<path style="fill:#EEA886;" d="M351.837,1484.736c-0.154,1.049-1.822,8.491-1.914,10.621c-0.093,2.16,0.246,6.545-1.606,6.361
						c-1.883-0.156-3.273-4.016-3.273-4.016s-0.216,1.946-1.884,2.286c-3.272,0.679-4.601-0.958-4.601-0.958
						s-1.543,1.821-2.964,1.791c-3.181-0.123-4.446-1.761-4.446-1.761s-1.574,0.866-3.674,0.309
						c-2.686-0.71-3.335-3.396-3.335-3.396s-3.582-0.124-4.23-1.976c-0.679-1.885-0.154-3.582-0.277-5.156
						c-0.124-1.575,2.841-14.851,9.201-23.374c1.39-1.883,2.315-3.89,2.871-5.866c1.914-6.577-0.062-12.813-0.216-13.339
						l18.278,7.441c0,0,1.575,4.569,1.235,7.905c-0.123,1.11,0.062,2.563,0.309,4.013c0.031,0,0.031,0,0.031,0
						c0.37,1.977,0.927,4.015,1.235,5.373C353.071,1473.342,352.238,1482.203,351.837,1484.736z"/>
				</g>
			</g>
		</g>
		<g>
			<path style="fill:#0E1E2B;" d="M351.202,1491.807h-0.062l-0.648-0.155l-3.736-0.833h-0.03l-26.4-5.898l-0.092-0.029
				c-0.031,0-0.063,0-0.093-0.031c-3.119-0.647-6.206,1.358-6.886,4.477l-3.798,16.858l-0.587,2.655
				c-0.679,3.15,1.297,6.299,4.446,6.979l30.97,6.916c3.149,0.711,6.299-1.265,6.978-4.414l0.617-2.688l3.767-16.858
				C356.328,1495.635,354.352,1492.518,351.202,1491.807z M347.435,1517.464c-0.217,1.051-1.235,1.699-2.285,1.452L314.182,1512
				c-1.05-0.217-1.698-1.236-1.482-2.285l0.587-2.686l3.798-16.858c0.216-1.02,1.234-1.668,2.284-1.451l0.185,0.031l0.093,0.029
				l26.492,5.93h0.03l3.768,0.834l0.401,0.092c1.05,0.216,1.698,1.267,1.482,2.285l-3.799,16.859L347.435,1517.464z"/>
		</g>
		<g>
			
				<rect x="261.821" y="1509.886" transform="matrix(0.976 0.2178 -0.2178 0.976 345.8652 -32.7231)" style="fill:#54281A;" width="119.1" height="85.331"/>
		</g>
		<g>
			
				<rect x="265.728" y="1510.317" transform="matrix(0.976 0.2178 -0.2178 0.976 342.1465 -33.9942)" style="fill:#873F2B;" width="119.1" height="49.462"/>
		</g>
		<g>
			<path style="fill:#EFAA88;" d="M579.553,1293.068c0,0,2.89-5.334,2.265-6.328c-0.626-0.994-2.662-2.044-7.142,3.164
				c-4.479,5.208-5.1,7.207-7.377,9.228C565.022,1301.151,579.553,1293.068,579.553,1293.068z"/>
			
				<rect x="581.911" y="1251.529" transform="matrix(0.9415 0.3369 -0.3369 0.9415 467.7881 -122.7652)" style="fill:#6B6B6B;" width="11.411" height="69.843"/>
			<path style="fill:#EEA886;" d="M589.909,1303.15c0,0,3.149,3.365,1.143,6.7c-1.977,3.304-0.494,4.971-3.335,6.979
				c-2.81,2.007-0.154,5.989-3.304,6.977c-2.81,0.896-10.281-0.679-13.925-0.277c-0.247,0.03-0.464,0.062-0.648,0.123
				c-0.217,0.031-0.433,0.093-0.618,0.154c-0.309,0.124-0.741,0.31-1.266,0.463c-1.575,0.587-3.952,1.297-6.36,1.945
				c-3.582,1.019-7.287,1.853-8.677,1.761c-2.687-0.155-7.503-15.192-7.503-15.192s6.484-2.47,12.999-7.132
				c3.582-2.563,7.873-6.823,11.733-9.942c0.03-0.031,0.03-0.062,0.03-0.062c2.471-1.976,4.755-3.551,6.546-3.922
				c0.464-0.124,0.927-0.153,1.328-0.062c0.463,0.093,0.957,0.217,1.513,0.401c0.124,0.031,0.278,0.093,0.433,0.155
				c3.211,1.049,7.442,3.272,9.85,4.939c1.08,0.771,1.791,1.421,1.883,1.822C592.07,1300.495,589.909,1303.15,589.909,1303.15z"/>
			<path style="fill:#D19376;" d="M589.896,1303.159c0,0,3.165,3.364,1.166,6.681c-1.999,3.315-0.5,4.981-3.332,6.981
				c-2.832,1.999-0.167,5.998-3.332,6.997c-2.792,0.882-10.257-0.699-13.919-0.283c1.85-0.308,7.106-1.258,7.533-2.159
				c4.523-9.57-1-28.99-1-28.99l-0.302-0.675c0.488-0.107,0.943-0.128,1.357-0.048c4.332,0.833,13.328,5.831,13.662,7.331
				C592.063,1300.493,589.896,1303.159,589.896,1303.159z"/>
			<path style="fill:#C4C4C4;" d="M598.656,1263.131c-0.599,1.934-1.665,3.32-2.381,3.1c-0.716-0.222-0.812-1.969-0.213-3.902
				s1.665-3.322,2.381-3.1C599.159,1259.449,599.255,1261.197,598.656,1263.131z"/>
		</g>
		
			<linearGradient id="SVGID_00000129187057194363669950000002028009187413034401_" gradientUnits="userSpaceOnUse" x1="553.6888" y1="1541.8948" x2="567.2347" y2="1794.4857">
			<stop  offset="0" style="stop-color:#EB9B73"/>
			<stop  offset="1" style="stop-color:#EEA886"/>
		</linearGradient>
		<path style="fill:url(#SVGID_00000129187057194363669950000002028009187413034401_);" d="M549.84,1796.395
			c0,0,6.625,11.587,11.038,14.451c4.413,2.863,25.023,23.591,31.267,23.967c6.244,0.375,18.502-0.385,19.328,2.141
			c0.826,2.525,2.732,15.051-14.545,17.68c-17.276,2.63-21.877,2.888-26.638-0.807c-4.761-3.695-22.863-13.757-27.398-13.066
			l3.286,21.596l-4.535,0.69c0,0-8.394-26.122-12.638-30.778c-4.244-4.658-3.465-24.221,4.207-33.343
			C540.883,1789.803,549.84,1796.395,549.84,1796.395z"/>
		<path style="fill:#1F3F59;" d="M592.144,1834.813c0,0-18.892,5.084-27.868-0.179c-8.977-5.263-21.232-19.633-37.582-17.866
			c0,0-4.89,8.23,6.869,24.102c0,0,7.803,18.904,8.079,22.177l4.535-0.69l-3.286-21.596c0,0,17.251,5.108,30.144,16.184
			c0,0,33.902,1.028,38.837-10.107c0,0,2.791-5.617,0.614-10.48C610.31,1831.495,592.144,1834.813,592.144,1834.813z"/>
		
			<linearGradient id="SVGID_00000096045935475503597650000001301219603693390500_" gradientUnits="userSpaceOnUse" x1="278.3515" y1="1556.662" x2="291.8974" y2="1809.2521">
			<stop  offset="0" style="stop-color:#EB9B73"/>
			<stop  offset="1" style="stop-color:#EEA886"/>
		</linearGradient>
		<path style="fill:url(#SVGID_00000096045935475503597650000001301219603693390500_);" d="M292.096,1777.051
			c0,0,1.044,13.307,3.813,17.779c2.769,4.474,12.558,32.016,18.044,35.021c5.486,3.005,16.896,7.55,16.565,10.187
			c-0.331,2.637-3.954,14.777-20.7,9.78c-16.746-4.997-21.017-6.728-23.744-12.101c-2.727-5.373-14.804-22.198-19.199-23.511
			l-6.247,20.933l-4.396-1.312c0,0,3.56-27.206,1.709-33.229c-1.85-6.023,7.206-23.382,18.037-28.356
			C286.809,1767.267,292.096,1777.051,292.096,1777.051z"/>
		<path style="fill:#1F3F59;" d="M313.952,1829.851c0,0-19.254-3.466-25.125-12.058c-5.871-8.591-10.819-26.816-26.36-32.198
			c0,0-7.935,5.356-4.075,24.727c0,0-1.014,20.426-2.16,23.504l4.396,1.312l6.247-20.933c0,0,13.419,11.983,20.352,27.502
			c0,0,30.219,15.401,39.435,7.438c0,0,4.922-3.889,5.028-9.214C331.796,1834.605,313.952,1829.851,313.952,1829.851z"/>
		<g>
			
				<linearGradient id="SVGID_00000042002152093175769310000013356497382102746296_" gradientUnits="userSpaceOnUse" x1="269.5479" y1="1779.8746" x2="297.8711" y2="1779.8746">
				<stop  offset="0" style="stop-color:#EB9B73"/>
				<stop  offset="1" style="stop-color:#EEA886"/>
			</linearGradient>
			<path style="fill:url(#SVGID_00000042002152093175769310000013356497382102746296_);" d="M297.871,1775.045
				c0,0-10.09,17.991-10.771,21.204c-0.68,3.208-14.489,1.692-17.553-10.827c0,0,11.749-22.727,11.4-23.348
				C280.6,1761.453,297.871,1775.045,297.871,1775.045z"/>
		</g>
		<g>
			
				<linearGradient id="SVGID_00000101068707820552621940000011232719983658213776_" gradientUnits="userSpaceOnUse" x1="387.2179" y1="1552.7589" x2="318.6918" y2="1724.0741">
				<stop  offset="0" style="stop-color:#EB9B73"/>
				<stop  offset="1" style="stop-color:#EEA886"/>
			</linearGradient>
			<path style="fill:url(#SVGID_00000101068707820552621940000011232719983658213776_);" d="M438.64,1516.362
				c0,0-32.009,79.657-40.055,94.849c-8.047,15.191-19.944,22.93-22.802,29.766c-2.856,6.837-78.471,135.069-78.471,135.069
				s-13.272-1.745-16.773-12.745c0,0,31.385-94.753,37.501-112.054c5.746-16.252,37.015-47.248,35.88-62.776
				c-1.136-15.527,19.786-120.166,47.617-147.766C429.368,1413.106,438.64,1516.362,438.64,1516.362z"/>
		</g>
		<path style="fill:#A36037;" d="M517.397,1598.794c0,0-147.437,82.559-202.83,45.384c0,0,46.779-100.746,47.86-133.073
			c0.339-9.942,2.778-19.206,5.928-27.233c2.655-6.854,5.867-12.782,8.707-17.384c4.138-6.732,7.534-10.683,7.534-10.683
			l85.961,18.803c0,0,0.463,1.173,1.327,3.336C478.802,1495.202,495.743,1518.969,517.397,1598.794z"/>
		<g>
			<g>
				<path style="fill:#D19376;" d="M345.774,1496.557c0,0,2.685-11.895,0.109-15.196c-2.575-3.301-3.785,0.935-3.785,0.935
					s1.268-4.167-1.986-5.566c-3.253-1.399-4.403,3.639-4.403,3.639s0.103-3.428-3.57-3.615c-3.673-0.188-3.665,4.22-3.665,4.22
					s-2.56-4.944-5.539-1.522c-5.03,5.778-3.38,14.706-3.38,14.706s0.834,2.156,4.377,2.093c0,0,1.475,5.283,7.175,3.18
					c0,0,4.67,4.246,7.475,0.055C338.581,1499.483,344.315,1503.151,345.774,1496.557z"/>
			</g>
		</g>
		<g>
			<path style="fill:#323657;" d="M436.685,1272.922c-5.249,13.339-18.742,25.164-22.694,29.857
				c-2.223,2.688-13.74,20.349-23.343,35.539c-2.809,4.478-5.465,8.708-7.657,12.32c-0.031,0-0.031,0-0.031,0
				c-3.551,5.805-5.959,9.911-6.021,10.498c-0.247,2.162-9.502,25.613-14.164,50.768c-3.757,20.267-7.604,54.582-7.604,54.582
				l-25.103-5.681c0,0,5.496-86.362,15.037-104.548c10.189-19.453,37.206-79.446,37.206-79.446s23.065-51.44,52.892-33.1
				C435.203,1243.713,441.966,1259.584,436.685,1272.922z"/>
		</g>
		<path style="fill:#323657;" d="M476.208,1350.608c-4.106,4.91-2.1,13.833-0.803,21.613c0.493,2.965,0.895,5.744,0.833,8.059
			c-0.03,1.05,0.226,3.197-0.093,6.114c-6.348,58.181,0.278,81.791-1.852,89.326c-0.247,0.832-1.05,1.574-2.408,2.223
			c-5.032,2.501-17.23,3.952-32.081,4.137c-1.976,0.031-4.045,0.031-6.143,0c-14.821-0.093-31.525-1.389-46.007-3.922
			c-2.377-0.431-4.693-0.863-6.916-1.358c-2.934-0.616-5.712-1.327-8.306-2.068c-0.927-0.247-1.822-0.524-2.686-0.802
			c0,0,21.799-56.998,27.388-68.208c4.322-8.737-1.05-44.152-6.484-67.403c-1.852-7.935-3.705-14.449-5.188-18.001
			c-4.168-10.065-2.902-43.412,9.603-63.976c3.86-6.299,8.77-11.394,14.914-14.234c1.143-0.525,2.316-0.988,3.551-1.358
			c0.679-0.186,1.39-0.37,2.1-0.525c0,0,0.154,0.124,0.463,0.402c2.377,2.037,13.555,11.608,22.571,19.761
			c1.698,1.543,3.334,3.025,4.816,4.415l0.031,0.03c1.451,1.359,2.778,2.595,3.859,3.674c2.192,2.162,5.619,5.744,9.603,10.036
			l0.772,0.864c11.857,12.876,27.975,31.617,30.228,38.843c1.327,4.262,0.463,9.479-1.42,14.636
			C484.02,1339.708,479.696,1346.408,476.208,1350.608z"/>
		<path style="fill:#EEA886;" d="M413.468,1240.354c1.231-10.165-1.603-24.547-1.603-24.547s37.788,14.562,31.739,19.574
			c-1.576,1.307-2.569,3.686-3.176,6.491c-1.729,7.971-0.347,19.392-0.347,19.392l13.113,13.705
			C458.181,1279.873,412.869,1245.293,413.468,1240.354z"/>
		<path style="fill:#A77860;" d="M443.038,1237.354c-1.575,1.307-2.266,3.084-2.872,5.89c-14.779-7.601-22.352-21.307-22.595-21.688
			C425.961,1230.624,443.038,1237.354,443.038,1237.354z"/>
		<path style="fill:#EDDAD3;" d="M413.728,1237.041l28.901,17.409l1.189,9.354l13.928,15.597c0,0-30.66-23.905-47.781-37.306
			L413.728,1237.041z"/>
		<path style="fill:#FAB46C;" d="M411.822,1142.229c0,0-10.454,5.03-12.468,26.873
			C399.354,1169.103,391.44,1146.017,411.822,1142.229z"/>
		<g>
			<path style="fill:#EEA886;" d="M471.455,1155.347c0,0,8.052,8.861,4.229,33.931c0,0,1.442,20.021,4.36,23.613
				c2.918,3.593-8.377,4.445-9.657,6.903c-1.28,2.459-5.023,12.605-11.056,19.296c-7.07,7.843-47.133-14.476-48.559-26.576
				c-1.426-12.101-26.331-64.695,16.33-65.412S471.455,1155.347,471.455,1155.347z"/>
		</g>
		<g>
			<path style="fill:#E8734D;" d="M476.603,1180.563c0,0,6.094-49.71-47.428-43.985c-50.983,5.453-22.629,65.008-16.555,83.784
				c0,0-0.085-29.366,24.212-29.366C461.13,1190.996,465.867,1185.818,476.603,1180.563z"/>
		</g>
		<g>
			<path style="fill:#EEA886;" d="M433.173,1183.548c-2.829-5.396-13.341-2.982-12.463,5.102
				c0.878,8.084,8.906,16.428,11.819,12.646C435.443,1197.514,437.328,1191.473,433.173,1183.548z"/>
		</g>
		<path style="fill:#1D2033;" d="M476.238,1380.28c-0.03,1.05-0.061,3.18-0.093,6.114c-0.494,0.307-11.979,7.44-17.414,0.802
			c-5.403-6.546-42.671-74.475-44.987-78.704c1.451,2.068,13.432,19.112,27.851,35.261c11.054,12.382,23.528,24.239,33.811,28.468
			C475.898,1375.186,476.3,1377.965,476.238,1380.28z"/>
		<path style="fill:#323657;" d="M406.804,1264.853c-4.86,3.084-12.479,14.606-4.06,28.424c8.692,14.266,24.33,29.857,29.543,37.474
			c5.213,7.617,32.26,45.693,38.238,43.593c5.979-2.102,15.772-8.421,29.097-13.976c12.755-5.318,65.884-33.046,65.884-33.046
			l-10.587-20.316c0,0-11.964,4.929-22.458,9.638c-10.494,4.71-34.479,12.351-55.681,19.475c0,0-24.917-32.821-28.597-39.167
			C444.504,1290.604,428.663,1250.979,406.804,1264.853z"/>
	</g>
</g>
</svg>
